<?xml version="1.0" encoding="UTF-8" standalone="no"?>
<!-- Created with Inkscape (http://www.inkscape.org/) -->

<svg
   xmlns:dc="http://purl.org/dc/elements/1.1/"
   xmlns:cc="http://creativecommons.org/ns#"
   xmlns:rdf="http://www.w3.org/1999/02/22-rdf-syntax-ns#"
   xmlns:svg="http://www.w3.org/2000/svg"
   xmlns="http://www.w3.org/2000/svg"
   xmlns:sodipodi="http://sodipodi.sourceforge.net/DTD/sodipodi-0.dtd"
   xmlns:inkscape="http://www.inkscape.org/namespaces/inkscape"
   id="svg3355"
   version="1.1"
   inkscape:version="0.91 r13725"
   xml:space="preserve"
   width="1287.725"
   height="1279.4875"
   viewBox="0 0 1287.725 1279.4875"
   sodipodi:docname="Chicken 2.svg"><metadata
     id="metadata3361"><rdf:RDF><cc:Work
         rdf:about=""><dc:format>image/svg+xml</dc:format><dc:type
           rdf:resource="http://purl.org/dc/dcmitype/StillImage" /><dc:title /></cc:Work></rdf:RDF></metadata><defs
     id="defs3359" /><sodipodi:namedview
     pagecolor="#ffffff"
     bordercolor="#666666"
     borderopacity="1"
     objecttolerance="10"
     gridtolerance="10"
     guidetolerance="10"
     inkscape:pageopacity="0"
     inkscape:pageshadow="2"
     inkscape:window-width="1280"
     inkscape:window-height="700"
     id="namedview3357"
     showgrid="false"
     inkscape:zoom="0.38921832"
     inkscape:cx="150.56608"
     inkscape:cy="639.74377"
     inkscape:window-x="0"
     inkscape:window-y="1"
     inkscape:window-maximized="1"
     inkscape:current-layer="layer6" /><g
     inkscape:groupmode="layer"
     id="layer5"
     inkscape:label="Chicken 2 Body"
     style="display:inline"><path
       style="display:inline;fill:#facf0b;fill-opacity:1;fill-rule:nonzero;stroke:none"
       d="m 536.87425,103.68755 c -2.37096,-0.10859 -4.75472,0.63449 -6.88152,1.72762 -6.74834,3.46991 -11.3939,10.71462 -11.729,18.29685 -0.75359,-3.60735 -1.76662,-7.26816 -3.97643,-10.21612 -2.20981,-2.94796 -5.85837,-5.0655 -9.50432,-4.52656 -2.51866,0.37062 -5.0657,2.77124 -4.22254,5.17562 0.2826,0.80764 0.89662,1.45169 1.49116,2.06784 3.36593,3.48561 7.51066,9.03359 12.22363,13.31426 -44.44427,5.16574 -87.75346,38.59186 -107.30549,78.11933 -2.01215,5.74458 -3.31944,11.66791 -3.97883,17.67191 -0.74587,6.74526 -0.67185,13.58895 0.1327,20.37434 0.80455,6.7854 2.33789,13.50913 4.49519,20.01965 20.14464,53.94964 77.74303,95.93023 137.29517,80.31023 13.66654,-2.92789 26.35953,-7.81038 36.83257,-16.3207 4.6806,-2.9495 9.09624,-6.11279 13.04644,-9.99656 4.54007,-3.93781 8.80545,-8.2311 12.78342,-12.80515 7.95439,-9.14808 14.78583,-19.45367 20.31885,-30.19233 1.95192,-4.88135 3.90374,-10.73846 4.88125,-16.59577 0.97596,-7.80923 0.97664,-15.61856 0.0362,-23.30116 -0.5235,-6.04262 -1.53884,-11.92648 -2.95337,-17.39926 -2.94023,-18.84903 -10.74936,-35.44682 -22.91027,-49.17204 -4.05209,-4.869 -8.53492,-9.41689 -13.33597,-13.61105 -9.60055,-8.38678 -20.47482,-15.346 -31.74624,-20.57943 -5.76002,-2.47697 -11.65255,-4.28246 -17.61641,-5.47 -2.30204,-0.45802 -4.61658,-0.7964 -6.93704,-1.07373 3.33915,-4.56161 5.34314,-10.75297 6.43757,-15.31694 0.43702,-1.82684 0.76622,-3.76506 0.21956,-5.5641 -0.79374,-2.6144 -3.38197,-4.42241 -6.08285,-4.83783 -0.33743,-0.0518 -0.67471,-0.0834 -1.01342,-0.0989 z M 459.58254,209.8035 c 6.0515,-0.11674 12.23976,1.34311 17.97835,4.6448 25.0862,14.43866 21.31266,60.21829 -0.37159,75.37348 -12.76779,8.92262 -32.04419,3.15575 -41.2988,-7.75741 -11.18959,-13.194 -15.04498,-33.32783 -8.78771,-49.57016 2.3457,-6.09204 6.2428,-11.18138 11.06545,-14.98639 6.08046,-4.79747 13.63379,-7.55417 21.4143,-7.70432 z m 110.7149,4.16945 c 6.05162,-0.11674 12.24042,1.34311 17.97834,4.6448 25.08621,14.43866 21.31266,60.21587 -0.37158,75.37106 -12.76779,8.92263 -32.04416,3.15817 -41.29881,-7.75499 -11.18957,-13.194 -15.04343,-33.32782 -8.78771,-49.57016 2.34571,-6.09203 6.24038,-11.18137 11.06305,-14.98638 6.08046,-4.79748 13.63605,-7.55418 21.41671,-7.70433 z"
       id="path3405"
       inkscape:connector-curvature="0" /></g><g
     inkscape:groupmode="layer"
     id="layer8"
     inkscape:label="Chicken 2 Eyes"
     style="display:inline"><path
       inkscape:connector-curvature="0"
       id="path3409"
       style="display:inline;fill:#100f0d;fill-opacity:1;fill-rule:nonzero;stroke:none"
       d="m 444.30429,267.02442 c 0.29186,7.31507 2.8028,14.89267 8.4084,19.60106 5.60714,4.70839 14.68728,5.58243 20.11066,0.66557 3.39888,-3.08231 4.87054,-7.77063 5.45426,-12.32151 0.69028,-5.38631 0.33047,-10.90543 -1.05472,-16.15586 -2.85067,-10.81587 -16.48787,-19.35707 -25.67456,-9.63298 -4.29608,4.54625 -7.49575,11.50461 -7.24404,17.84372" /><path
       inkscape:connector-curvature="0"
       id="path3413"
       style="display:inline;fill:#100f0d;fill-opacity:1;fill-rule:nonzero;stroke:none"
       d="m 553.09458,273.04696 c 0.29186,7.31507 2.8028,14.89267 8.4084,19.60106 5.60714,4.7084 14.68728,5.58244 20.11066,0.66557 3.39888,-3.08231 4.87054,-7.77062 5.45426,-12.32151 0.69028,-5.38631 0.32893,-10.90543 -1.05472,-16.15585 -2.85067,-10.81587 -16.48786,-19.35553 -25.67456,-9.63298 -4.29608,4.54624 -7.49729,11.5046 -7.24404,17.84371" /></g><g
     inkscape:groupmode="layer"
     id="layer7"
     inkscape:label="Chicken 2 Beak"
     style="display:inline"><path
       inkscape:connector-curvature="0"
       id="path3415"
       style="display:inline;fill:#e72729;fill-opacity:1;fill-rule:nonzero;stroke:none"
       d="m 518.57151,339.87402 c 0.8308,-0.17604 1.49637,-0.77984 2.09554,-1.38209 4.53235,-4.54779 7.79996,-10.34024 9.35038,-16.57126 0.81227,-3.27225 0.71035,-7.55598 -2.32254,-9.03227 -0.74123,-0.36135 -1.57203,-0.49261 -2.38894,-0.60226 -6.00401,-0.80763 -25.50933,-2.78581 -25.87223,6.23874 -0.21773,5.37087 14.08503,22.42548 19.13779,21.34914" /></g><g
     inkscape:groupmode="layer"
     id="layer6"
     inkscape:label="Chicken 2 Wings"
     style="display:inline"><path
       inkscape:connector-curvature="0"
       id="path3389"
       style="display:inline;fill:#f38d28;fill-opacity:1;fill-rule:nonzero;stroke:none"
       d="m 625.49481,210.38008 c 1.19216,-3.25217 3.14871,-6.78231 6.5445,-7.46486 3.74942,-0.75359 7.31507,2.63448 8.18757,6.3561 0.8725,3.72317 -0.20229,7.59458 -1.26782,11.26679 0.88022,-2.63757 2.81824,-5.71524 5.55309,-5.21182 2.83214,0.52195 3.45602,4.31307 3.06069,7.16528 -0.70881,5.11608 -2.57425,10.06692 -5.41874,14.37844 -0.16061,-2.41828 3.56102,-3.42204 5.40175,-1.84691 1.84228,1.57667 2.11716,4.2899 2.08627,6.71436 -0.18839,15.39146 -8.13815,31.00374 -21.68115,38.32962 -6.60472,3.57184 -7.85556,-18.64054 -8.16132,-23.16826 -1.00067,-14.75214 0.59453,-32.59276 5.69516,-46.51874" /><path
       inkscape:connector-curvature="0"
       id="path3391"
       style="display:inline;fill:#f38d28;fill-opacity:1;fill-rule:nonzero;stroke:none"
       d="m 399.302,209.34544 c -1.93185,-2.87538 -4.67133,-5.83878 -8.13198,-5.69362 -3.82045,0.15906 -6.47809,4.29763 -6.44103,8.12117 0.0386,3.82354 2.00288,7.32743 3.91156,10.64137 -1.48247,-2.35188 -4.09687,-4.88135 -6.63406,-3.74015 -2.62521,1.1798 -2.33026,5.01106 -1.26782,7.68723 1.90559,4.79951 4.89524,9.16508 8.68327,12.67514 -0.42004,-2.38585 -4.27292,-2.47542 -5.6859,-0.50806 -1.41453,1.96891 -1.03464,4.67134 -0.43084,7.01704 3.84516,14.90656 15.28181,28.17932 30.17757,32.0739 7.26411,1.89787 3.19504,-19.97477 2.41674,-24.44535 -2.53719,-14.56683 -8.33119,-31.51643 -16.59751,-43.82867" /><path
       style="display:inline;fill:#f38d28;fill-opacity:1;fill-rule:nonzero;stroke:none"
       d="M 456.68359 313.60938 C 456.04695 313.61636 455.37043 313.8441 454.73633 314.32812 C 451.91346 316.4808 450.34927 320.15647 448.50391 323.11523 C 446.49176 326.34115 444.15945 329.39204 442.2168 332.65039 C 442.16764 332.73278 442.13043 332.81423 442.08594 332.89648 C 437.62795 334.25115 433.26518 336.35424 430.31445 340.00586 C 429.83882 340.59421 430.00222 341.32954 430.71875 341.61523 C 435.35259 343.46034 440.57043 343.00342 445.36328 341.82812 C 446.63419 345.26859 448.88781 348.25821 451.60352 350.85547 C 452.30152 351.52258 453.81377 351.14569 453.72266 350.02148 C 453.3669 345.61841 453.73774 341.04009 452.96094 336.66992 C 454.38289 333.66619 455.52644 330.47129 456.69141 327.38477 C 457.98394 323.95655 459.86653 320.11575 459.48047 316.39258 C 459.29892 314.6472 458.0842 313.59402 456.68359 313.60938 z "
       id="path3393" /><path
       style="display:inline;fill:#f38d28;fill-opacity:1;fill-rule:nonzero;stroke:none"
       d="M 566.64648 328.32227 C 566.24305 328.2937 565.82579 328.38551 565.5293 328.58008 C 562.43464 330.59995 561.94222 335.37687 561.11914 338.74023 C 560.04589 343.1336 558.51728 347.66642 558.0293 352.16016 C 557.95762 352.82487 557.97641 353.4807 558.07617 354.10938 C 558.01626 354.24461 557.97971 354.38774 557.93164 354.52734 C 557.15918 355.58819 556.49747 356.69165 555.4668 357.63672 C 554.12331 358.86902 552.67757 359.85857 552.23438 361.70703 C 551.93016 362.9733 552.76198 364.33273 554.03906 364.62305 C 555.89524 365.04617 557.41152 364.1965 559.11328 363.53711 C 560.31076 363.07223 561.49477 362.94206 562.68359 362.75195 C 563.5507 363.32806 564.44452 363.8805 565.35938 364.43555 C 567.50432 365.73735 569.50891 366.86523 571.94727 367.49219 C 573.53629 367.89987 575.18247 366.26935 574.625 364.66797 C 573.84824 362.43963 572.70587 360.55157 571.55078 358.50391 C 570.51581 356.66818 569.69126 354.73193 568.41016 353.0957 C 568.99857 348.87758 568.92041 344.49157 569.12109 340.25781 C 569.30023 336.51765 570.23582 331.84048 567.68164 328.78906 C 567.4392 328.50029 567.04992 328.35083 566.64648 328.32227 z "
       id="path3399" /></g></svg>