<?xml version="1.0" encoding="UTF-8" standalone="no"?>
<!-- Created with Inkscape (http://www.inkscape.org/) -->

<svg
   xmlns:dc="http://purl.org/dc/elements/1.1/"
   xmlns:cc="http://creativecommons.org/ns#"
   xmlns:rdf="http://www.w3.org/1999/02/22-rdf-syntax-ns#"
   xmlns:svg="http://www.w3.org/2000/svg"
   xmlns="http://www.w3.org/2000/svg"
   xmlns:sodipodi="http://sodipodi.sourceforge.net/DTD/sodipodi-0.dtd"
   xmlns:inkscape="http://www.inkscape.org/namespaces/inkscape"
   id="svg3355"
   version="1.1"
   inkscape:version="0.91 r13725"
   xml:space="preserve"
   width="1287.725"
   height="1279.4875"
   viewBox="0 0 1287.725 1279.4875"
   sodipodi:docname="Chicken 1.svg"><metadata
     id="metadata3361"><rdf:RDF><cc:Work
         rdf:about=""><dc:format>image/svg+xml</dc:format><dc:type
           rdf:resource="http://purl.org/dc/dcmitype/StillImage" /><dc:title /></cc:Work></rdf:RDF></metadata><defs
     id="defs3359" /><sodipodi:namedview
     pagecolor="#ffffff"
     bordercolor="#666666"
     borderopacity="1"
     objecttolerance="10"
     gridtolerance="10"
     guidetolerance="10"
     inkscape:pageopacity="0"
     inkscape:pageshadow="2"
     inkscape:window-width="1280"
     inkscape:window-height="700"
     id="namedview3357"
     showgrid="false"
     inkscape:zoom="0.38921832"
     inkscape:cx="150.56608"
     inkscape:cy="639.74377"
     inkscape:window-x="0"
     inkscape:window-y="1"
     inkscape:window-maximized="1"
     inkscape:current-layer="layer2" /><g
     inkscape:groupmode="layer"
     id="layer1"
     inkscape:label="Chicken 1 Body"
     style="display:inline"><path
       style="fill:#facf0b;fill-opacity:1;fill-rule:nonzero;stroke:none"
       d="m 909.28976,101.08045 c -0.73929,0.0115 -1.47543,0.0927 -2.20256,0.25525 -2.90853,0.6484 -5.59264,2.80685 -6.26293,5.71032 -0.46146,1.99571 0.0386,4.08395 0.64997,6.03925 1.54751,4.94933 4.23701,11.64504 8.29445,16.37309 -5.102,0.74594 -10.26822,1.84592 -15.45208,3.2262 -6.15218,1.63867 -12.33123,3.6726 -18.45985,5.98662 -34.3819,11.4539 -65.66295,36.78581 -86.32578,68.39223 -4.1329,6.32061 -7.83929,12.89269 -11.06275,19.65454 -5.03993,9.36073 -8.39671,19.51402 -10.14437,29.91469 -6.33523,-2.77368 -12.97837,-5.00233 -19.26509,-7.67077 -5.64357,-2.39486 -11.3682,-1.95887 -15.37311,3.06832 -3.57882,4.4933 -3.33682,11.59978 0.93418,15.64679 1.25806,1.19238 2.64916,2.24033 4.08406,3.2104 2.14212,1.44696 4.45177,1.91615 6.67343,1.67626 0.72024,0.21577 1.44519,0.42227 2.17625,0.62103 -7.92613,3.13457 -14.94864,7.35085 -12.86532,17.54146 1.56457,7.65614 10.75591,10.08648 16.92832,6.88659 0.0657,-0.0337 0.13263,-0.0699 0.19999,-0.10526 1.13375,-0.58772 2.05582,-1.35076 2.79989,-2.2315 -0.61055,1.59648 3.30546,-1.42783 4.82878,-2.21571 2.22308,-1.14859 4.33142,-2.31738 6.3524,-3.78933 0.71922,-0.52345 1.41429,-1.06285 2.09729,-1.61309 4.06511,29.05726 20.71457,55.91907 49.3982,68.75011 4.99181,2.0294 10.54845,3.67776 16.47833,4.8735 23.31874,5.33876 48.24329,5.29801 71.42897,4.51825 6.56649,-0.24083 13.16457,-0.57134 19.73612,-0.9368 6.56986,-0.36546 13.11141,-0.76681 19.60717,-1.12891 4.8773,-0.88923 9.64407,-2.06424 14.24685,-3.5446 13.80833,-4.44279 26.14494,-11.62842 35.96184,-22.38339 35.19869,-38.56027 29.73179,-110.03345 8.83649,-153.28913 -11.5145,-23.83744 -31.56882,-44.16175 -56.63737,-52.67175 -4.35743,-1.4793 -8.88425,-2.45355 -13.53898,-2.98937 5.36292,-5.15635 9.88782,-12.25634 13.58635,-16.64676 0.60292,-0.71576 1.21911,-1.45941 1.46836,-2.36043 0.73934,-2.6778 -2.20739,-5.1036 -4.97613,-5.32086 -4.00659,-0.31662 -7.81887,2.25613 -10.0049,5.62611 -2.18771,3.37166 -3.02115,7.42878 -3.57355,11.41011 -0.92628,-8.22539 -6.51376,-15.76237 -14.11264,-19.04141 -2.05256,-0.88544 -4.29242,-1.4767 -6.51028,-1.44205 z m 17.03094,54.56642 c 3.41209,0.0893 6.86081,0.6384 10.26279,1.68678 18.13997,5.59306 32.79511,22.47402 36.55918,40.96429 3.11062,15.29039 -4.94571,35.70133 -21.20449,40.62745 -27.61162,8.36518 -69.39502,-19.27465 -64.85287,-50.51393 2.37801,-16.33119 14.59114,-28.18834 29.19102,-31.70147 3.25715,-0.78396 6.63229,-1.15238 10.04437,-1.06312 z"
       id="path3461"
       inkscape:connector-curvature="0" /></g><g
     inkscape:groupmode="layer"
     id="layer4"
     inkscape:label="Chicken 1 Beak"
     style="display:inline"><path
       inkscape:connector-curvature="0"
       id="path3467"
       style="fill:#e72729;fill-opacity:1;fill-rule:nonzero;stroke:none"
       d="m 1010.1077,185.66335 c -0.029,0.73092 -0.4463,1.38269 -0.8707,1.98056 -3.2066,4.51015 -7.6561,8.1277 -12.72539,10.34741 -2.66264,1.16712 -6.31724,1.70099 -8.0115,-0.66187 -0.41598,-0.57766 -0.64671,-1.2648 -0.85891,-1.94351 -1.55784,-4.98508 -6.06799,-21.27248 1.54941,-22.89095 4.53205,-0.96333 21.09899,8.71716 20.91709,13.16836" /></g><g
     inkscape:groupmode="layer"
     id="layer3"
     inkscape:label="Chicken 1 Eye"
     style="display:inline"><path
       inkscape:connector-curvature="0"
       id="path3465"
       style="fill:#100f0d;fill-opacity:1;fill-rule:nonzero;stroke:none"
       d="m 959.65401,174.55639 c 6.20777,5.29833 11.11707,12.72206 11.37643,20.88008 0.26104,8.15801 -5.23265,16.71517 -13.27952,18.07765 -5.04402,0.85218 -10.16552,-1.08964 -14.55441,-3.71523 -5.1956,-3.10894 -9.78154,-7.23005 -13.42772,-12.06188 -7.50962,-9.955 -5.59306,-27.78845 9.25945,-29.13577 6.94543,-0.62819 15.24828,1.36416 20.62577,5.95515" /></g><g
     inkscape:groupmode="layer"
     id="layer2"
     inkscape:label="Chicken 1 Wings"
     style="display:inline"><path
       style="fill:#f38d28;fill-opacity:1;fill-rule:nonzero;stroke:none"
       d="M 849.41406 349.9375 C 848.61198 349.94393 847.81214 350.22238 847.25195 350.7832 C 844.39395 353.63951 843.19115 357.55128 841.7832 361.25977 C 840.39928 364.89757 838.94221 368.6064 837.89258 372.37305 C 834.12227 375.26477 831.19011 379.39594 827.81641 382.69727 C 827.00296 383.49051 827.594 385.05195 828.76953 384.99805 C 831.47764 384.87342 834.2613 384.78543 836.76562 383.71094 C 838.3753 383.01931 840.16117 382.28458 841.75391 381.32812 C 844.96028 382.42229 848.82376 381.39146 849.50781 377.27734 C 850.24715 372.83456 850.59916 368.34015 851.33008 363.89062 C 851.98184 359.93288 853.01855 356.13018 852.33984 352.12695 C 852.09354 350.67332 850.75087 349.92679 849.41406 349.9375 z "
       id="path3453" /><path
       style="fill:#f38d28;fill-opacity:1;fill-rule:nonzero;stroke:none"
       d="M 945.28516 349.00391 C 944.78714 349.02415 944.29054 349.09121 943.79688 349.21289 C 942.78469 349.46214 942.14925 350.61688 942.43555 351.60547 C 943.5673 355.49922 947.81071 357.77146 950.9668 360.02148 C 954.85956 362.79436 958.69457 365.93851 962.83789 368.3418 C 963.3782 370.35608 964.25602 372.17467 965.0957 374.19336 C 966.09776 376.6 966.86798 378.94193 968.2793 381.14648 C 969.18537 382.56117 971.79298 382.9721 972.58789 381.14648 C 973.69101 378.61521 974.08134 376.23479 974.43164 373.49805 C 974.58886 372.26797 974.75425 371.045 974.86523 369.82422 C 975.69002 369.03957 976.44381 368.25544 977.58398 367.56055 C 979.23276 366.55512 981.29949 365.76703 982.17188 363.94141 C 982.73607 362.76419 982.59693 360.94735 981.22266 360.32422 C 979.20842 359.40803 977.41661 359.89101 975.30469 360.24805 C 973.6313 360.53263 972.30566 360.18921 970.85156 360.19336 C 970.46181 359.74902 969.97606 359.33983 969.38477 358.98242 C 965.02283 356.34673 960.05975 354.51764 955.41992 352.40234 C 952.3253 350.99208 948.77128 348.86218 945.28516 349.00391 z "
       id="path3459" /><path
       inkscape:connector-curvature="0"
       id="path3469"
       style="fill:#f38d28;fill-opacity:1;fill-rule:nonzero;stroke:none"
       d="m 838.34309,250.20667 c -11.22654,-2.22476 -23.31031,-2.95737 -33.71835,1.80204 -6.09661,2.78727 -11.76546,8.3298 -11.55662,15.03103 0.19367,6.21787 5.54421,11.31579 11.46063,13.24246 5.91641,1.92498 12.31618,1.36584 18.51048,0.78481 -8.03002,1.51574 -15.63564,5.22255 -21.77605,10.61519 -3.91227,3.43398 -7.44562,8.80136 -5.30507,13.5473 1.77341,3.92912 6.57324,5.37748 10.85434,5.88946 7.28226,0.87239 14.73125,0.31831 21.80468,-1.62183 -6.7686,3.87523 -14.45168,9.31166 -14.11822,17.10421 0.27283,6.3543 6.37787,11.29896 12.67996,12.15619 6.29871,0.85723 12.59911,-1.47531 18.24775,-4.39394 18.56269,-9.58955 41.33406,-31.56937 43.0721,-53.86245 1.54437,-19.78707 -35.7629,-27.44152 -50.15563,-30.29447" /><path
       inkscape:connector-curvature="0"
       id="path3451"
       style="fill:#f38d28;fill-opacity:1;fill-rule:nonzero;stroke:none"
       d="m 852.84024,392.3943 c -2.71316,-1.08964 -4.8975,-2.38475 -7.161,-4.36194 -2.54138,-2.21803 -4.52194,-4.91772 -6.37282,-7.71677 -1.54605,-2.33929 -0.46314,-5.74127 1.86267,-7.10206 2.5919,-1.51573 5.48527,-0.43788 7.10037,1.86267 3.44409,4.8975 5.87768,10.29352 5.89789,16.30761 0.002,0.61809 -0.68208,1.26817 -1.32711,1.01049 l 0,0" /></g></svg>