<?xml version="1.0" encoding="UTF-8" standalone="no"?>
<!-- Created with Inkscape (http://www.inkscape.org/) -->

<svg
   xmlns:dc="http://purl.org/dc/elements/1.1/"
   xmlns:cc="http://creativecommons.org/ns#"
   xmlns:rdf="http://www.w3.org/1999/02/22-rdf-syntax-ns#"
   xmlns:svg="http://www.w3.org/2000/svg"
   xmlns="http://www.w3.org/2000/svg"
   xmlns:sodipodi="http://sodipodi.sourceforge.net/DTD/sodipodi-0.dtd"
   xmlns:inkscape="http://www.inkscape.org/namespaces/inkscape"
   width="210mm"
   height="297mm"
   viewBox="0 0 744.09448819 1052.3622047"
   id="svg5891"
   version="1.1"
   inkscape:version="0.91 r13725"
   sodipodi:docname="Triforce.svg">
  <defs
     id="defs5893" />
  <sodipodi:namedview
     id="base"
     pagecolor="#ffffff"
     bordercolor="#666666"
     borderopacity="1.0"
     inkscape:pageopacity="0.0"
     inkscape:pageshadow="2"
     inkscape:zoom="0.35"
     inkscape:cx="100.71429"
     inkscape:cy="520"
     inkscape:document-units="px"
     inkscape:current-layer="layer1"
     showgrid="false"
     inkscape:window-width="1280"
     inkscape:window-height="700"
     inkscape:window-x="0"
     inkscape:window-y="1"
     inkscape:window-maximized="1" />
  <metadata
     id="metadata5896">
    <rdf:RDF>
      <cc:Work
         rdf:about="">
        <dc:format>image/svg+xml</dc:format>
        <dc:type
           rdf:resource="http://purl.org/dc/dcmitype/StillImage" />
        <dc:title></dc:title>
      </cc:Work>
    </rdf:RDF>
  </metadata>
  <g
     inkscape:label="Layer 1"
     inkscape:groupmode="layer"
     id="layer1">
    <path
       inkscape:connector-curvature="0"
       id="path5946"
       style="fill:#000000;fill-opacity:1;fill-rule:evenodd;stroke:none"
       d="m 39.683273,416.60978 187.670747,27.8 0.98625,24.46 -163.490997,12.115 c 1.347125,10.325 24.272,53.65 38.714377,66.73375 l 133.08787,-45.385 6.8675,19.13375 -104.725,72.585 c 3.19688,7.1625 31.57875,25.04975 46.04625,30.246 l 71.89875,-79.45725 12.33875,10.9375 c -0.94125,7.72375 -29.67,81.969 -31.26,91.12188 13.3975,4.94337 22.65625,7.54587 40.62125,6.70599 l 18.15125,-85.25037 c 10.5475,-2.415 19.40125,-5.835 23.30875,-13.30875 5.17625,-9.8975 0.8125,-21.07375 -4.55375,-26.79625 -5.305,-5.65875 -13.495,-10.0625 -22.62125,-13.94125 -7.11625,-3.025 -15.06375,-12.3125 -19.0925,-18.4225 -27.8725,-42.27375 -14.53375,-82.81 -1.6275,-121.4775 -14.67875,0.18875 -32.63875,28.17375 -37.27125,40.885 L 18.404902,335.58603 c 1.569333,25.235 11.348146,61.58125 21.278371,81.02375 z M 327.26277,603.51316 c 2.0725,2.59125 29.61375,20.58549 33.66875,22.584 l 0.67125,17.8115 c -2.9,2.53862 -6.0275,4.65675 -8.8125,6.62887 l 22.22375,73.9849 22.225,-73.9849 c -2.78625,-1.97212 -5.9125,-4.09025 -8.8125,-6.62887 l 0.67,-17.8115 c 4.055,-1.99851 31.5975,-19.99275 33.66875,-22.584 l -47.75,-99.46213 -47.7525,99.46213 z m -61.57875,-141.79588 107.54,0.26375 c -1.9125,-4.68375 -50.39375,-77.6125 -53.53,-80.63625 l -54.01,80.3725 z m 55.44375,-83.16125 107.48875,0.33875 -53.60125,-80.685 -53.8875,80.34625 z m 56.12875,83.1525 107.2575,0.15625 -53.24125,-80.47875 -54.01625,80.3225 z m -41.98875,180.88813 c 3.2375,-5.92725 5.04375,-8.6245 -5.2475,-8.61325 -9.4075,0.0102 -9.045,2.57375 -12.45375,8.73574 l -21.3125,37.33988 c -23.08375,1.05075 -40.255,0.46725 -62.7925,4.99513 1.1275,14.312 7.0075,19.28512 14.93875,25.47362 4.80625,3.75 18.10375,14.28714 23.37625,15.98684 0.2475,-5.03564 0.43375,-9.9248 -0.16875,-14.95409 -0.4675,-3.89938 -2.04125,-7.34037 -2.205,-10.96638 8.695,-2.12787 27.76375,-3.50824 34.245,-0.33299 3.0475,1.49374 1.9425,-0.15475 2.33375,10.2955 0.84,-0.0684 23.4325,-9.65725 24.9425,-15.085 0.59875,-2.15675 1.45125,-8.48438 1.50625,-10.8355 -6.9475,-2.27775 -9.06375,-3.49313 -16.9675,-3.19238 l 19.805,-38.84712 z m 373.62,-225.98688 -187.67125,27.8 -0.98625,24.46 163.49125,12.115 c -1.3475,10.325 -24.2725,53.65 -38.715,66.73375 l -133.0875,-45.385 -6.8675,19.13375 104.725,72.585 c -3.19625,7.1625 -31.57875,25.04975 -46.04625,30.246 l -71.8975,-79.45725 -12.34,10.9375 c 0.94125,7.72375 29.67,81.969 31.26,91.12188 -13.3975,4.94337 -22.65625,7.54587 -40.62125,6.70599 l -18.15125,-85.25037 c -10.5475,-2.415 -19.40125,-5.835 -23.30875,-13.30875 -5.17625,-9.8975 -0.81125,-21.07375 4.55375,-26.79625 5.305,-5.65875 13.495,-10.0625 22.62125,-13.94125 7.1175,-3.025 15.06375,-12.3125 19.0925,-18.4225 27.8725,-42.27375 14.53375,-82.81 1.6275,-121.4775 14.67875,0.18875 32.63875,28.17375 37.27125,40.885 l 216.32875,-79.70875 c -1.57,25.235 -11.34875,61.58125 -21.27875,81.02375 z m -295.585,225.98688 c -3.2375,-5.92725 -5.04375,-8.6245 5.24875,-8.61325 9.40625,0.0102 9.04375,2.57375 12.4525,8.73574 l 21.3125,37.33988 c 23.08375,1.05075 40.255,0.46725 62.7925,4.99513 -1.1275,14.312 -7.0075,19.28512 -14.93875,25.47362 -4.80625,3.75 -18.10375,14.28714 -23.37625,15.98684 -0.2475,-5.03564 -0.43375,-9.9248 0.16875,-14.95409 0.4675,-3.89938 2.04125,-7.34037 2.205,-10.96638 -8.695,-2.12787 -27.76375,-3.50824 -34.245,-0.33299 -3.0475,1.49374 -1.9425,-0.15475 -2.33375,10.2955 -0.84,-0.0684 -23.4325,-9.65725 -24.9425,-15.085 -0.59875,-2.15675 -1.45125,-8.48438 -1.50625,-10.8355 6.9475,-2.27775 9.06375,-3.49313 16.9675,-3.19238 l -19.805,-38.84712" />
  </g>
</svg>
