<?xml version="1.0" encoding="UTF-8" standalone="no"?>
<!-- Created with Inkscape (http://www.inkscape.org/) -->

<svg
   xmlns:dc="http://purl.org/dc/elements/1.1/"
   xmlns:cc="http://creativecommons.org/ns#"
   xmlns:rdf="http://www.w3.org/1999/02/22-rdf-syntax-ns#"
   xmlns:svg="http://www.w3.org/2000/svg"
   xmlns="http://www.w3.org/2000/svg"
   xmlns:sodipodi="http://sodipodi.sourceforge.net/DTD/sodipodi-0.dtd"
   xmlns:inkscape="http://www.inkscape.org/namespaces/inkscape"
   width="210mm"
   height="297mm"
   viewBox="0 0 744.09448819 1052.3622047"
   id="svg2"
   version="1.1"
   inkscape:version="0.91 r13725"
   sodipodi:docname="Video Games.svg">
  <defs
     id="defs4" />
  <sodipodi:namedview
     id="base"
     pagecolor="#ffffff"
     bordercolor="#666666"
     borderopacity="1.0"
     inkscape:pageopacity="0.0"
     inkscape:pageshadow="2"
     inkscape:zoom="1.979899"
     inkscape:cx="285.01575"
     inkscape:cy="486.1091"
     inkscape:document-units="px"
     inkscape:current-layer="layer2"
     showgrid="false"
     inkscape:window-width="1280"
     inkscape:window-height="700"
     inkscape:window-x="0"
     inkscape:window-y="1"
     inkscape:window-maximized="1" />
  <metadata
     id="metadata7">
    <rdf:RDF>
      <cc:Work
         rdf:about="">
        <dc:format>image/svg+xml</dc:format>
        <dc:type
           rdf:resource="http://purl.org/dc/dcmitype/StillImage" />
        <dc:title></dc:title>
      </cc:Work>
    </rdf:RDF>
  </metadata>
  <g
     inkscape:label="Game Cube"
     inkscape:groupmode="layer"
     id="layer1"
     style="display:inline">
    <g
       id="g4142">
      <rect
         y="490.00159"
         x="191.78224"
         height="153.1498"
         width="128.1498"
         id="rect4138"
         style="fill:#c7c7c7;fill-opacity:1;stroke:none;stroke-width:0.8502118;stroke-opacity:1" />
      <circle
         r="48.356571"
         cy="570.07648"
         cx="255.85715"
         id="path3336"
         style="fill:#000000;fill-opacity:1;stroke:#000000;stroke-width:0.286861;stroke-opacity:1" />
    </g>
  </g>
  <g
     inkscape:groupmode="layer"
     id="layer2"
     inkscape:label="Decal"
     style="display:inline">
    <g
       transform="matrix(0.81915204,-0.57357644,0.57357644,0.81915204,0,0)"
       style="font-style:normal;font-variant:normal;font-weight:normal;font-stretch:condensed;font-size:34.92136765px;line-height:125%;font-family:Impact;-inkscape-font-specification:'Impact Condensed';letter-spacing:0px;word-spacing:0px;fill:#ec4949;fill-opacity:1;stroke:none;stroke-width:1px;stroke-linecap:butt;stroke-linejoin:miter;stroke-opacity:1"
       id="text4147">
      <path
         d="m -145.98219,575.13607 -3.64901,27.6063 -10.89587,0 -4.14351,-27.6063 7.57085,0 q 1.31296,11.40742 1.87566,19.28519 0.5627,-7.96302 1.17655,-14.1527 l 0.49449,-5.13249 7.57084,0 z"
         style="font-style:normal;font-variant:normal;font-weight:normal;font-stretch:condensed;font-family:Impact;-inkscape-font-specification:'Impact Condensed';fill:#ec4949;fill-opacity:1"
         id="path4181" />
      <path
         d="m -137.8657,575.13607 0,3.59786 -7.0934,0 0,-3.59786 7.0934,0 z m 0,4.97903 0,22.62727 -7.0934,0 0,-22.62727 7.0934,0 z"
         style="font-style:normal;font-variant:normal;font-weight:normal;font-stretch:condensed;font-family:Impact;-inkscape-font-specification:'Impact Condensed';fill:#ec4949;fill-opacity:1"
         id="path4183" />
      <path
         d="m -119.74001,575.13607 0,27.6063 -6.88878,0 0,-1.63694 q -0.98899,1.02309 -2.08028,1.53463 -1.09129,0.51155 -2.28489,0.51155 -1.60284,0 -2.77939,-0.83553 -1.17655,-0.85257 -1.51758,-1.96091 -0.32398,-1.10835 -0.32398,-3.61491 l 0,-10.58895 q 0,-2.60887 0.32398,-3.70016 0.34103,-1.0913 1.53463,-1.90977 1.1936,-0.83552 2.84759,-0.83552 1.27886,0 2.33605,0.46039 1.07424,0.46039 1.94387,1.38117 l 0,-6.41135 6.88878,0 z m -6.88878,10.67421 q 0,-1.24475 -0.22167,-1.67104 -0.20462,-0.42629 -0.83552,-0.42629 -0.61385,0 -0.83552,0.39219 -0.20462,0.37513 -0.20462,1.70514 l 0,11.08344 q 0,1.38117 0.20462,1.82451 0.20461,0.42628 0.78436,0.42628 0.66501,0 0.88668,-0.47744 0.22167,-0.49449 0.22167,-2.3872 l 0,-10.46959 z"
         style="font-style:normal;font-variant:normal;font-weight:normal;font-stretch:condensed;font-family:Impact;-inkscape-font-specification:'Impact Condensed';fill:#ec4949;fill-opacity:1"
         id="path4185" />
      <path
         d="m -101.66547,591.82944 -8.91791,0 0,4.89377 q 0,1.53463 0.22167,1.97797 0.22167,0.44333 0.85257,0.44333 0.78437,0 1.04014,-0.57974 0.27282,-0.59681 0.27282,-2.2849 l 0,-2.984 6.53071,0 0,1.67104 q 0,2.09733 -0.27282,3.22272 -0.25578,1.1254 -1.22771,2.40426 -0.97193,1.27886 -2.47246,1.92681 -1.48347,0.63091 -3.73427,0.63091 -2.18258,0 -3.85362,-0.63091 -1.67104,-0.6309 -2.60887,-1.72219 -0.92078,-1.10835 -1.27886,-2.42131 -0.35808,-1.33001 -0.35808,-3.85363 l 0,-6.59891 q 0,-2.96695 0.80141,-4.6721 0.80142,-1.72219 2.62593,-2.62592 1.8245,-0.92078 4.19465,-0.92078 2.89875,0 4.77441,1.10835 1.89271,1.09129 2.64297,2.91579 0.76732,1.80746 0.76732,5.09839 l 0,3.00105 z m -6.90584,-3.68311 0,-1.65399 q 0,-1.7563 -0.18756,-2.26784 -0.18757,-0.51155 -0.76732,-0.51155 -0.71616,0 -0.88667,0.44334 -0.17052,0.42629 -0.17052,2.33605 l 0,1.65399 2.01207,0 z"
         style="font-style:normal;font-variant:normal;font-weight:normal;font-stretch:condensed;font-family:Impact;-inkscape-font-specification:'Impact Condensed';fill:#ec4949;fill-opacity:1"
         id="path4187" />
      <path
         d="m -83.812603,588.06107 0,5.54172 q 0,3.05221 -0.306926,4.48454 -0.306926,1.41527 -1.312962,2.66002 -1.006035,1.22771 -2.59182,1.82451 -1.568733,0.57975 -3.614907,0.57975 -2.284894,0 -3.870679,-0.4945 -1.585785,-0.51154 -2.47246,-1.51758 -0.869624,-1.02308 -1.244756,-2.4554 -0.375132,-1.44938 -0.375132,-4.33107 l 0,-5.7975 q 0,-3.15451 0.682058,-4.92786 0.682058,-1.77335 2.455409,-2.8476 1.77335,-1.07424 4.535685,-1.07424 2.318997,0 3.972988,0.69911 1.671042,0.68206 2.574769,1.7904 0.903726,1.10835 1.227704,2.2849 0.341029,1.17655 0.341029,3.5808 z m -6.888786,-1.70514 q 0,-1.73925 -0.187565,-2.18259 -0.187566,-0.46039 -0.801419,-0.46039 -0.613852,0 -0.818469,0.46039 -0.204618,0.44334 -0.204618,2.18259 l 0,10.21382 q 0,1.60283 0.204618,2.09732 0.204617,0.47744 0.801418,0.47744 0.613852,0 0.801418,-0.44333 0.204617,-0.44334 0.204617,-1.90977 l 0,-10.43548 z"
         style="font-style:normal;font-variant:normal;font-weight:normal;font-stretch:condensed;font-family:Impact;-inkscape-font-specification:'Impact Condensed';fill:#ec4949;fill-opacity:1"
         id="path4189" />
      <path
         d="m -146.56194,628.95045 -7.17866,0 0,-2.50657 q 0,-2.37015 -0.20461,-2.96695 -0.20462,-0.5968 -0.97194,-0.5968 -0.665,0 -0.90372,0.51155 -0.23872,0.51154 -0.23872,2.62592 l 0,13.24897 q 0,1.85861 0.23872,2.45541 0.23872,0.57975 0.95488,0.57975 0.78436,0 1.05719,-0.665 0.28987,-0.66501 0.28987,-2.59182 l 0,-3.27388 -1.44937,0 0,-4.19466 8.40636,0 0,14.81771 -4.51863,0 -0.66501,-1.97797 q -0.73321,1.27886 -1.8586,1.92682 -1.10835,0.6309 -2.62593,0.6309 -1.80745,0 -3.39324,-0.86962 -1.56873,-0.88668 -2.3872,-2.18259 -0.81847,-1.29591 -1.02309,-2.71118 -0.20461,-1.43232 -0.20461,-4.27991 l 0,-8.20175 q 0,-3.95594 0.42628,-5.74634 0.42629,-1.7904 2.43836,-3.27388 2.02912,-1.50053 5.23479,-1.50053 3.15452,0 5.2348,1.29592 2.08028,1.29591 2.71118,3.08631 0.6309,1.77335 0.6309,5.16659 l 0,1.1936 z"
         style="font-style:normal;font-variant:normal;font-weight:normal;font-stretch:condensed;font-family:Impact;-inkscape-font-specification:'Impact Condensed';fill:#ec4949;fill-opacity:1"
         id="path4191" />
      <path
         d="m -137.84865,632.53125 -6.4625,0 0,-1.51758 q 0,-2.62592 0.5968,-4.04119 0.61386,-1.43232 2.43836,-2.52361 1.82451,-1.0913 4.7403,-1.0913 3.49555,0 5.2689,1.24476 1.77335,1.2277 2.13143,3.03516 0.35808,1.7904 0.35808,7.40033 l 0,11.35626 -6.70122,0 0,-2.01207 q -0.6309,1.21065 -1.63693,1.8245 -0.98899,0.5968 -2.37016,0.5968 -1.80745,0 -3.32503,-1.00603 -1.50053,-1.02309 -1.50053,-4.45043 l 0,-1.85861 q 0,-2.54066 0.80142,-3.46144 0.80142,-0.92078 3.97299,-2.14848 3.39324,-1.33002 3.63196,-1.79041 0.23872,-0.46038 0.23872,-1.87565 0,-1.77336 -0.27282,-2.30195 -0.25578,-0.54565 -0.86963,-0.54565 -0.69911,0 -0.86962,0.46039 -0.17052,0.44334 -0.17052,2.33605 l 0,2.37015 z m 2.18259,3.10337 q -1.65399,1.21065 -1.92681,2.02912 -0.25578,0.81847 -0.25578,2.3531 0,1.7563 0.22167,2.26784 0.23872,0.51154 0.92078,0.51154 0.64796,0 0.83552,-0.39218 0.20462,-0.40923 0.20462,-2.11438 l 0,-4.65504 z"
         style="font-style:normal;font-variant:normal;font-weight:normal;font-stretch:condensed;font-family:Impact;-inkscape-font-specification:'Impact Condensed';fill:#ec4949;fill-opacity:1"
         id="path4193" />
      <path
         d="m -119.60359,623.76681 -0.11936,2.14848 q 0.80141,-1.27886 1.90976,-1.90976 1.10834,-0.64796 2.52361,-0.64796 2.76234,0 4.34812,2.55772 0.86963,-1.27886 1.96092,-1.90976 1.09129,-0.64796 2.4213,-0.64796 1.7563,0 2.89875,0.85257 1.1595,0.85258 1.48348,2.09733 0.32397,1.22771 0.32397,4.00709 l 0,16.07952 -6.68416,0 0,-14.7495 q 0,-2.89875 -0.20462,-3.58081 -0.18757,-0.69911 -0.90373,-0.69911 -0.73321,0 -0.95488,0.68206 -0.20462,0.68206 -0.20462,3.59786 l 0,14.7495 -6.68416,0 0,-14.37437 q 0,-3.32503 -0.17052,-3.99004 -0.15346,-0.66501 -0.88667,-0.66501 -0.46039,0 -0.78437,0.35808 -0.32398,0.34103 -0.35808,0.85258 -0.0341,0.49449 -0.0341,2.13143 l 0,15.68733 -6.68417,0 0,-22.62727 6.80353,0 z"
         style="font-style:normal;font-variant:normal;font-weight:normal;font-stretch:condensed;font-family:Impact;-inkscape-font-specification:'Impact Condensed';fill:#ec4949;fill-opacity:1"
         id="path4195" />
      <path
         d="m -83.863758,635.48115 -8.917908,0 0,4.89377 q 0,1.53463 0.221669,1.97797 0.221668,0.44333 0.852572,0.44333 0.784367,0 1.040138,-0.57974 0.272824,-0.59681 0.272824,-2.2849 l 0,-2.984 6.530705,0 0,1.67104 q 0,2.09733 -0.272824,3.22272 -0.255771,1.1254 -1.227704,2.40426 -0.971933,1.27886 -2.47246,1.92681 -1.483476,0.6309 -3.734267,0.6309 -2.182586,0 -3.853628,-0.6309 -1.671042,-0.6309 -2.608872,-1.7222 -0.920778,-1.10834 -1.278858,-2.4213 -0.358081,-1.33001 -0.358081,-3.85363 l 0,-6.59891 q 0,-2.96695 0.801418,-4.6721 0.801418,-1.72219 2.625924,-2.62592 1.824505,-0.92078 4.194656,-0.92078 2.898746,0 4.774406,1.10835 1.892711,1.09129 2.642974,2.91579 0.767316,1.80746 0.767316,5.09839 l 0,3.00105 z m -6.905837,-3.68311 0,-1.65399 q 0,-1.7563 -0.187566,-2.26784 -0.187566,-0.51155 -0.767315,-0.51155 -0.716161,0 -0.886676,0.44334 -0.170514,0.42629 -0.170514,2.33605 l 0,1.65399 2.012071,0 z"
         style="font-style:normal;font-variant:normal;font-weight:normal;font-stretch:condensed;font-family:Impact;-inkscape-font-specification:'Impact Condensed';fill:#ec4949;fill-opacity:1"
         id="path4197" />
      <path
         d="m -67.528474,630.99662 -6.104419,0 0,-1.2277 q 0,-1.56874 -0.187566,-1.97797 -0.170514,-0.42629 -0.886675,-0.42629 -0.579749,0 -0.869624,0.39219 -0.289874,0.37513 -0.289874,1.14244 0,1.04014 0.136411,1.53463 0.153463,0.47744 0.869624,1.05719 0.733212,0.57975 2.984004,1.6881 3.001055,1.46642 3.938884,2.76233 0.93783,1.29591 0.93783,3.76837 0,2.76234 -0.716161,4.17761 -0.716161,1.39822 -2.404254,2.16553 -1.671042,0.75026 -4.041194,0.75026 -2.625923,0 -4.501582,-0.81846 -1.858608,-0.81847 -2.557717,-2.21669 -0.69911,-1.39822 -0.69911,-4.22876 l 0,-1.0913 6.104419,0 0,1.43233 q 0,1.8245 0.221669,2.37015 0.23872,0.54564 0.920778,0.54564 0.733212,0 1.023087,-0.35808 0.289875,-0.37513 0.289875,-1.55168 0,-1.61989 -0.375132,-2.02912 -0.392184,-0.40924 -4.007091,-2.42131 -3.035158,-1.70514 -3.700164,-3.08631 -0.665007,-1.39822 -0.665007,-3.30798 0,-2.71118 0.716161,-3.99004 0.716161,-1.29591 2.421306,-1.99502 1.722196,-0.69911 3.990039,-0.69911 2.250791,0 3.819524,0.57975 1.585785,0.5627 2.421306,1.50053 0.852573,0.93783 1.023087,1.73925 0.187566,0.80142 0.187566,2.50656 l 0,1.31296 z"
         style="font-style:normal;font-variant:normal;font-weight:normal;font-stretch:condensed;font-family:Impact;-inkscape-font-specification:'Impact Condensed';fill:#ec4949;fill-opacity:1"
         id="path4199" />
    </g>
  </g>
</svg>
