<?xml version="1.0" encoding="UTF-8" standalone="no"?>
<!-- Created with Inkscape (http://www.inkscape.org/) -->

<svg
   xmlns:dc="http://purl.org/dc/elements/1.1/"
   xmlns:cc="http://creativecommons.org/ns#"
   xmlns:rdf="http://www.w3.org/1999/02/22-rdf-syntax-ns#"
   xmlns:svg="http://www.w3.org/2000/svg"
   xmlns="http://www.w3.org/2000/svg"
   xmlns:sodipodi="http://sodipodi.sourceforge.net/DTD/sodipodi-0.dtd"
   xmlns:inkscape="http://www.inkscape.org/namespaces/inkscape"
   width="210mm"
   height="297mm"
   viewBox="0 0 210 297"
   version="1.1"
   id="svg4497"
   inkscape:version="0.92.1 r15371"
   sodipodi:docname="Ghostbusters.svg">
  <defs
     id="defs4491" />
  <sodipodi:namedview
     id="base"
     pagecolor="#ffffff"
     bordercolor="#666666"
     borderopacity="1.0"
     inkscape:pageopacity="0.0"
     inkscape:pageshadow="2"
     inkscape:zoom="1.979899"
     inkscape:cx="237.7851"
     inkscape:cy="727.28325"
     inkscape:document-units="mm"
     inkscape:current-layer="layer3"
     showgrid="false"
     inkscape:window-width="1293"
     inkscape:window-height="942"
     inkscape:window-x="235"
     inkscape:window-y="35"
     inkscape:window-maximized="0" />
  <metadata
     id="metadata4494">
    <rdf:RDF>
      <cc:Work
         rdf:about="">
        <dc:format>image/svg+xml</dc:format>
        <dc:type
           rdf:resource="http://purl.org/dc/dcmitype/StillImage" />
        <dc:title></dc:title>
      </cc:Work>
    </rdf:RDF>
  </metadata>
  <g
     inkscape:groupmode="layer"
     id="layer3"
     inkscape:label="Red Circle"
     style="display:inline">
    <path
       inkscape:connector-curvature="0"
       id="path5056"
       style="display:inline;fill:#ed1c24;fill-opacity:1;fill-rule:nonzero;stroke:none;stroke-width:0.01540219"
       d="m 89.52758,105.59097 c -1.410227,0.005 -1.212772,0.404 -1.212772,0.404 0.307278,0.5132 1.130063,1.05705 1.253122,1.13745 0.0097,-0.42033 0.0064,-0.84204 -0.0079,-1.26652 -0.01694,-0.16665 -0.03235,-0.27493 -0.03235,-0.27493 z m -2.463737,2.49115 c -0.3065,-0.22534 -1.103565,-0.59961 -1.295171,-0.66784 -0.191137,-0.0687 -0.56803,-0.10258 -0.917041,-0.0546 -0.348244,0.0476 -0.892868,0.25538 -1.152858,0.37905 -0.259986,0.12368 -1.536522,0.51197 -1.536522,0.51197 -0.217167,2.58865 -1.123282,6.876 -5.870541,10.79879 -3.042552,2.51579 -7.830934,3.89952 -12.712966,2.98771 -4.250389,-0.79259 -6.900028,-3.43208 -6.900028,-3.43208 l 24.680157,-18.40191 c 0.22318,0.23211 0.384284,0.42695 0.384284,0.42695 l 0.75702,-0.14123 c 0,0 1.152085,-0.10859 1.708101,-0.17205 1.323667,-0.935066 3.421444,-2.164777 3.690055,-2.322031 -3.640152,-8.970678 -12.763327,-14.969676 -22.932161,-14.189402 -0.01584,0.0011 -0.03204,0.0034 -0.04821,0.0046 0.01292,0.170811 0.08872,0.935838 0.42233,1.714417 0.229799,0.534919 -0.0087,1.798977 0.09333,2.295851 0.332686,1.633096 1.435021,3.02145 1.435021,3.02145 1.744298,0.03204 2.741744,0.05868 5.431119,1.056281 2.690147,0.99529 4.393012,2.648099 4.393012,2.648099 L 52.36672,112.67213 c -0.460834,-0.85591 -0.752551,-2.22254 -0.752551,-2.22254 l -1.961315,1.72643 -2.03509,1.04797 c 0,0 0.440502,0.60838 0.511968,0.99821 0.07132,0.38798 0.06146,0.53554 -0.065,0.77165 -0.127377,0.23765 -0.569111,0.41724 -0.921975,0.42294 -0.35117,0.007 -0.918432,-0.34362 -1.071839,-0.45637 -0.154021,-0.11305 -0.88809,-0.76132 -0.88809,-0.76132 0,0 0.05021,0.1936 0.167577,0.53723 2.492382,6.5504 7.882531,11.5835 14.500851,13.66851 1.324588,0.40213 2.18249,0.53277 2.18249,0.53277 2.778552,0.46452 5.339786,0.58419 7.780414,0.30527 9.580624,-1.30196 17.099971,-8.45226 19.183274,-17.51969 0.0048,-0.024 0.01017,-0.0481 0.01524,-0.0721 0.02065,-0.0908 0.04004,-0.18267 0.05961,-0.27292 0.04143,-0.19946 0.07963,-0.39045 0.113974,-0.57066 8.73e-4,-0.005 0.0022,-0.0105 0.0026,-0.0157 0.01572,-0.0847 0.03174,-0.16695 0.04575,-0.24689 0.08055,-0.4633 0.146627,-0.93044 0.198072,-1.40191 -0.112743,-0.004 -0.921976,-0.0448 -1.491396,-0.44389 -0.614239,-0.42941 -0.570497,-0.39168 -0.877617,-0.61701 z m 2.226848,-5.07132 c -0.116441,-0.73824 -0.267224,-1.46414 -0.451743,-2.17556 -0.05453,-0.18052 -0.09164,-0.28648 -0.09164,-0.28648 -1.033793,1.1165 -1.108185,1.78572 -1.226014,2.12688 0.659062,0.20316 1.656198,0.32191 1.769402,0.33516 z m -40.721997,-0.22319 c 0.395374,-0.52891 0.939996,-1.47491 1.173185,-1.90694 0.245049,-0.4539 0.700954,-0.993443 0.961097,-1.262207 0.25968,-0.268769 0.512892,-0.456677 1.097559,-0.937226 -0.405539,-0.389519 -1.115118,-1.475992 -1.356009,-1.99643 -0.241043,-0.519826 -0.31636,-0.991595 -0.363799,-1.610607 -0.04744,-0.617781 0.08024,-1.468137 0.341929,-2.11087 0.261683,-0.641349 1.175033,-2.111333 1.175033,-2.111333 0,0 1.45335,-1.904324 1.588736,-2.162773 0.08194,-0.156642 0.172965,-0.417863 0.233034,-0.602227 0,-3.08e-4 4.81e-4,-9.16e-4 4.81e-4,-0.0012 l 0.148168,-0.184672 c 0,0 0.0016,-0.0032 0.004,-0.0078 -0.03913,0.02726 -0.07824,0.05545 -0.117211,0.08333 -1.53e-4,-6.11e-4 1.55e-4,-0.002 7.86e-4,-0.0029 -0.02757,0.02002 -0.05452,0.04005 -0.08209,0.05945 -0.01725,0.01278 -0.03557,0.0248 -0.05314,0.03819 7.86e-4,0 7.86e-4,1.54e-4 7.86e-4,7.86e-4 -4.552424,3.297301 -7.809525,8.216143 -8.983788,13.838859 -0.306812,1.52051 -0.470999,3.12188 -0.479624,4.82874 0,0 0.548318,0.24936 0.980658,0.21625 0.478392,-0.65937 3.336575,-3.64108 3.730255,-4.16845" />
    <g
       transform="translate(-34.210517,-43.126446)"
       style="display:inline"
       id="g5158">
      <path
         style="fill:#000000;fill-opacity:1;fill-rule:evenodd;stroke:#000000;stroke-width:0.28222224px;stroke-linecap:butt;stroke-linejoin:miter;stroke-opacity:1"
         d="m 67.318295,111.10078 c 0,8.38157 0,8.28179 0,8.28179 l 6.685302,-4.29057 z"
         id="path5154"
         inkscape:connector-curvature="0" />
      <path
         style="display:inline;fill:#000000;fill-opacity:1;fill-rule:evenodd;stroke:#000000;stroke-width:0.28222224px;stroke-linecap:butt;stroke-linejoin:miter;stroke-opacity:1"
         d="m 129.92665,111.04606 c 0,8.38158 0,8.28179 0,8.28179 l -6.68531,-4.29056 z"
         id="path5156"
         inkscape:connector-curvature="0" />
    </g>
  </g>
  <g
     inkscape:groupmode="layer"
     id="layer2"
     inkscape:label="White Ghost"
     style="display:inline"
     sodipodi:insensitive="true">
    <path
       inkscape:connector-curvature="0"
       id="path5060"
       style="fill:#aaaaaa;fill-opacity:0.55714285;fill-rule:nonzero;stroke:#000000;stroke-width:0.01540219;stroke-opacity:1"
       d="m 91.983921,103.76412 c -0.498262,-0.27294 -2.984174,-0.51813 -3.469344,-0.605 -0.481933,-0.0873 -1.037337,-0.27262 -1.037337,-0.27262 -0.213012,0.72144 0.329451,1.03194 0.329451,1.03194 -0.407694,0.0935 -1.111419,-0.43264 -0.456366,-1.89339 0.655211,-1.45982 2.175403,-2.71771 2.467741,-2.968305 0.292332,-0.251209 0.759173,-0.659986 0.620243,-1.105879 -0.137541,-0.444814 -0.818471,-0.392602 -1.822231,0.03698 -1.003454,0.429568 -2.894073,1.736137 -3.661564,2.271674 -0.768258,0.53568 -1.636175,0.85527 -1.636175,0.85527 -0.52244,0.20624 -1.243573,0.27848 -1.243573,0.27848 0.05453,-0.10797 0.358717,-0.19392 0.579278,-0.29387 0.220097,-0.10027 0.56372,-0.22996 0.56372,-0.22996 l -0.05037,-0.0995 c -0.478082,-0.0259 -1.25189,0.15834 -1.512337,0.28217 -0.25999,0.12322 -0.627797,0.19284 -0.627797,0.19284 -0.245664,0.0397 -0.270616,-0.15526 -0.270616,-0.15526 -0.04095,-0.12122 0.351172,-0.27569 0.351172,-0.27569 l -0.05314,-0.36489 -19.781339,14.73898 -0.0024,9.8e-4 c 4.602942,2.13613 7.146458,1.74907 7.727587,1.74445 0.580814,-0.002 0.02218,0.29002 0.02218,0.29002 -3.235078,0.53785 -6.965178,-1.04164 -6.965178,-1.04164 -0.245511,0.84789 -1.071376,1.98904 -1.299637,2.2555 -0.228415,0.2666 -0.721593,0.59421 -1.113732,0.8944 -0.276315,0.21208 -0.569419,0.5571 -0.719129,0.74392 -0.0078,0.01 -0.01648,0.0202 -0.02357,0.0285 -0.0091,0.0119 -0.01586,0.0202 -0.02325,0.0305 -0.03419,0.0433 -0.05545,0.0714 -0.05545,0.0714 3.566069,2.21083 7.610991,2.39704 10.643069,1.87845 2.535967,-0.43357 5.160965,-1.53299 7.318193,-3.44439 2.387647,-2.11488 3.716859,-4.30306 4.553044,-6.47832 0.691247,-1.79358 0.827094,-3.91138 0.827094,-3.91138 -0.917815,0.21548 -1.744451,-0.074 -1.744451,-0.074 -0.236732,0.16388 -1.729974,0.96264 -1.911105,1.03933 -0.180664,0.0755 -0.971722,0.57189 -1.887227,0.26862 -0.915663,-0.30235 -0.7812,-1.53744 -0.519979,-2.17848 0.262299,-0.64319 0.882084,-1.20876 0.952777,-1.3805 0.0687,-0.17096 -0.06746,-0.32606 -0.06746,-0.32606 -1.051511,-0.45853 -1.434101,-0.96665 -1.434101,-0.96665 l 0.370732,-0.2951 c 0.08764,0.1802 1.37526,1.00931 1.475839,0.96048 0.100727,-0.0502 0.129993,-0.1973 0.120291,-0.32067 -0.0094,-0.12322 0.250284,-0.53786 0.30034,-0.14741 0.05083,0.38938 -0.178817,0.90519 -0.178817,0.90519 -0.348401,0.33792 -1.035181,1.3862 -1.197984,1.95871 -0.164339,0.57218 -0.01834,1.39065 0.952319,1.33751 0.969412,-0.0542 1.883071,-0.60114 2.80905,-1.23186 0.92567,-0.6318 1.425933,-0.60777 1.610609,-0.62178 0.186824,-0.0142 0.337153,0.3276 -0.0114,0.37473 -0.349011,0.0473 -0.703419,0.30235 -0.703419,0.30235 1.147313,0.36826 2.748983,-0.65091 2.748983,-0.65091 1.139454,-0.56418 2.560308,0.0983 2.930884,0.33932 0.3715,0.24181 1.356626,0.93367 2.099164,1.14576 0.742692,0.21332 1.165637,0.0556 1.261286,-0.0556 0.09427,-0.11043 0.149247,-0.48701 -0.09765,-0.73822 -0.247669,-0.25121 -0.884704,-0.72052 -1.249734,-0.87932 -0.364725,-0.15772 -0.838341,-0.90996 -0.838341,-0.90996 -0.284789,0.0632 -0.255834,-0.10504 -0.255834,-0.10504 0.667685,-0.75686 1.374339,-0.72806 1.870598,-0.74577 0.497336,-0.0171 1.821615,0.2127 2.231008,0.14046 0.408773,-0.0727 1.098789,-0.27092 1.12898,-0.6877 0.03065,-0.41756 -0.445587,-0.67108 -0.943692,-0.94416 z M 62.143875,85.438129 c -0.07624,0.08903 -0.292026,-0.01925 -0.292026,-0.01925 -0.426486,-0.42356 -1.204296,-0.820166 -1.204296,-0.820166 l -0.02927,-0.121678 0.334382,-0.233651 0.188369,0.02757 c 0.414318,0.258142 0.96356,0.921513 0.96356,0.921513 0,0 0.114746,0.157103 0.03927,0.245665 z m -0.402306,2.063585 c -0.143548,0.01124 -0.180051,-0.463606 -0.262607,-0.45729 -0.08209,0.0063 -0.193144,-0.08872 -0.133075,0.694638 0.06022,0.784124 -0.416475,0.795371 -0.416475,0.795371 -0.22826,-0.0035 -0.479469,-0.04174 -0.490868,-0.995138 -0.0117,-0.952779 0.669842,-1.000987 0.669842,-1.000987 0.515357,-0.03958 0.679545,0.690018 0.679545,0.690018 0.02849,0.101962 0.03635,0.267228 -0.04636,0.273388 z M 60.65664,98.763177 c -0.05699,0.337311 -0.349014,0.856513 -0.944155,0.944155 -0.594524,0.08624 -1.198289,-0.48871 -1.249579,-0.609311 -0.05021,-0.120754 0.09025,-0.173273 0.202384,-0.07824 0.156641,0.135695 0.906574,0.469612 1.756929,-0.341157 0,0 0.291563,-0.25152 0.234421,0.08455 z M 56.827656,87.505565 c -0.124296,-0.799528 0.50704,-0.956014 0.50704,-0.956014 0.548471,-0.146013 0.743617,0.507502 0.743617,0.507502 0,0 0.06638,0.130303 -0.006,0.186983 -0.117673,0.09226 -0.220867,-0.439579 -0.380896,-0.364878 -0.160337,0.07454 0.06315,0.555403 0.06315,0.555403 0.164341,0.506116 0.06654,0.865756 -0.237656,0.951394 -0.304501,0.08533 -0.566492,-0.0807 -0.689248,-0.88039 z m -0.40939,-1.815302 c -0.01725,-0.22595 0.390753,-0.906265 0.829715,-1.078924 0.261529,-0.10381 0.328837,-0.0459 0.27416,0.06146 -0.573886,0.625174 -0.68586,1.110035 -0.68586,1.110035 -0.125374,0.259835 -0.400302,0.134924 -0.418015,-0.09257 z m 3.635839,10.090745 c 0.07193,0.658903 -0.299418,1.227092 -0.708346,1.299942 -0.409082,0.07254 -0.99036,-0.46453 -1.066139,-1.183502 -0.07562,-0.720054 0.163417,-1.381577 0.741615,-1.426089 0.53615,-0.04095 0.962483,0.651819 1.03287,1.309649 z m -1.39097,-4.08158 c 0,0 0.759173,0.438496 1.161016,-0.276161 0,0 0.233035,-0.204852 0.255215,0.08409 0.02203,0.288329 -0.14971,0.758252 -0.596528,0.875309 -0.446971,0.117824 -0.899332,-0.366419 -0.99113,-0.48317 -0.0918,-0.117824 0.06361,-0.253982 0.171427,-0.200071 z m 16.848916,3.618742 c -4.306605,-2.261042 -7.333906,-1.237718 -7.333906,-1.237718 -0.23812,3.37739 -2.259195,4.612031 -2.259195,4.612031 0.272772,-0.22903 1.620929,-2.264586 1.707178,-4.238221 0.08348,-1.893855 -1.047348,-3.382936 -1.324741,-3.756131 -0.370575,-0.497184 -0.892248,-1.465674 -0.892248,-1.465674 -0.725904,-1.354621 -0.378586,-1.835016 -0.512277,-3.320557 -0.142317,-1.587041 -1.503868,-2.829689 -1.503868,-2.829689 0.333918,0.01525 1.123897,0.846504 1.123897,0.846504 -0.01572,-0.205773 0.05683,-0.606385 0.644117,-0.795523 0.410314,-0.133075 1.181812,-0.323292 1.705332,-0.529219 0.523367,-0.206389 0.930445,-0.523829 1.015927,-1.027789 0.08564,-0.504729 -0.369959,-0.510736 -0.567724,-0.3715 -0.195762,0.139236 -0.560792,0.250747 -0.560792,0.250747 -0.347938,0.06776 -0.194222,0.181285 -0.194222,0.181285 l 0.315591,0.319595 c -0.800301,0.123217 -1.758007,-0.624867 -2.240251,-1.624469 -0.443736,-0.918587 -1.306876,-0.812465 -1.306876,-0.812465 -1.528665,0.07716 -3.318861,1.589197 -3.517241,1.725968 -0.375044,0.256601 -0.09965,0.334844 -0.09965,0.334844 0.582048,-0.0027 1.047041,0.12753 1.047041,0.12753 -2.01399,0.237811 -3.666953,0.861906 -4.717382,1.772638 -1.049351,0.909961 -1.713032,3.615048 -1.713032,3.615048 -0.203616,0.596681 -0.667068,1.74445 -0.667068,1.74445 -0.25352,0.474852 -0.687708,1.139454 -1.217697,1.801597 -0.529373,0.663371 -1.945143,2.762689 -1.802826,4.618035 0.142316,1.856426 2.38395,4.048773 2.613597,4.321699 0.227182,0.272154 0.297878,0.639654 0.297878,0.639654 -0.672613,-0.653516 -1.318889,-1.126207 -1.318889,-1.126207 0,0 -0.828484,0.441273 -1.530207,1.295637 -0.521211,0.63411 -0.958017,1.57517 -1.364172,2.22793 -0.406618,0.65335 -1.603984,1.80759 -1.603984,1.80759 -0.42202,0.44774 -1.267139,1.31643 -1.569021,1.71319 -0.301421,0.39568 -0.91951,0.98312 -0.91951,0.98312 l 0.849585,0.26692 c -0.297571,0.43681 -2.461117,-0.18559 -4.053395,-0.93353 -1.592494,-0.7487 -3.478969,-1.55824 -3.478969,-1.55824 -1.66265,-0.57758 -2.884059,-0.54632 -3.467418,-0.31528 -0.438423,0.1739 -0.402982,0.69495 0.06324,0.82525 0.466101,0.12953 1.779368,0.48517 2.26406,0.8636 0.485954,0.37689 0.866311,1.01161 1.008967,1.24835 0.142593,0.23858 -0.06997,0.1725 -0.06997,0.1725 -0.453578,-0.50427 -0.757726,-0.68832 -0.757726,-0.68832 -0.863847,0.64612 -2.210876,1.99381 -2.210876,1.99381 -0.546161,0.99699 0.547994,0.66338 0.547994,0.66338 2.394856,-0.68109 3.618852,0.67646 3.618852,0.67646 0,0 0.111004,0.36472 -0.110649,0.1745 -0.221591,-0.19006 -0.989051,-0.46298 -0.989051,-0.46298 -0.02604,0.74824 -0.667346,1.04688 -1.060349,1.8652 -0.393464,0.81755 0.516405,0.78906 0.792612,0.60222 0.276515,-0.18745 0.758388,-0.39013 1.11997,-0.54184 0.361474,-0.1531 0.01319,-0.37412 0.01319,-0.37412 0.437454,-0.24136 2.56579,1.00591 3.412771,1.23094 0.846505,0.22502 0.387365,-0.36071 0.387365,-0.36071 0.957554,0.0508 3.031459,2.21375 3.548356,2.46558 0.51736,0.24966 0.916585,0.0543 0.916585,0.0543 0.285556,-0.60454 -0.183287,-1.31427 -0.183287,-1.31427 -0.872534,-1.36448 0.193914,-1.79836 0.193914,-1.79836 -0.146321,0.25999 -0.222715,0.88748 -0.222715,0.88748 1.252967,-0.42772 2.319415,-1.13145 2.896689,-1.71565 0.576812,-0.58297 1.281923,-1.13529 1.281923,-1.13529 1.892314,-1.28563 3.263724,-1.24543 3.428682,-1.25805 0.165265,-0.013 0.07963,0.22147 0.07963,0.22147 l -0.499339,0.0929 0.70542,1.3691 c 0.02895,0.0511 0.05375,0.0932 0.07024,0.12091 l 20.28482,-15.082861 c -0.03881,-0.02078 -0.07686,-0.04004 -0.1149,-0.0593 z m -16.961353,24.71327 c -3.08e-4,3.1e-4 -7.85e-4,8.8e-4 -9.17e-4,8.8e-4 0.08902,0.0559 0.179898,0.11243 0.273544,0.16989 -0.09473,-0.0571 -0.183286,-0.11428 -0.27262,-0.17082" />
    <g
       id="g5149"
       style="display:inline"
       transform="translate(-34.210517,-43.126446)">
      <path
         inkscape:connector-curvature="0"
         id="path5145"
         d="m 67.318295,111.10078 c 0,8.38157 0,8.28179 0,8.28179 l 6.685302,-4.29057 z"
         style="fill:#000000;fill-opacity:1;fill-rule:evenodd;stroke:#000000;stroke-width:0.28222224px;stroke-linecap:butt;stroke-linejoin:miter;stroke-opacity:1" />
      <path
         inkscape:connector-curvature="0"
         id="path5147"
         d="m 129.92665,111.04606 c 0,8.38158 0,8.28179 0,8.28179 l -6.68531,-4.29056 z"
         style="display:inline;fill:#000000;fill-opacity:1;fill-rule:evenodd;stroke:#000000;stroke-width:0.28222224px;stroke-linecap:butt;stroke-linejoin:miter;stroke-opacity:1" />
    </g>
  </g>
  <g
     inkscape:groupmode="layer"
     id="layer4"
     inkscape:label="Black Outline"
     style="display:inline"
     sodipodi:insensitive="true">
    <path
       inkscape:connector-curvature="0"
       id="path5058"
       style="display:inline;fill:#231f20;fill-opacity:1;fill-rule:nonzero;stroke:none;stroke-width:0.01540219"
       d="m 57.247981,84.611339 c -0.438962,0.172659 -0.846966,0.852974 -0.829715,1.078924 0.01771,0.227491 0.292641,0.352402 0.418015,0.09257 0,0 0.111974,-0.484861 0.68586,-1.110035 0.05468,-0.107354 -0.01263,-0.165266 -0.27416,-0.06146 z m 4.603868,0.807537 c 0,0 0.215784,0.108278 0.292026,0.01926 0.07547,-0.08856 -0.03927,-0.245664 -0.03927,-0.245664 0,0 -0.549242,-0.663373 -0.96356,-0.921514 l -0.188369,-0.02757 -0.334382,0.233652 0.02927,0.121677 c 0,0 0.777811,0.396606 1.204297,0.820166 z m -1.413305,2.120419 c 0.0114,0.953395 0.262608,0.991746 0.490868,0.995138 0,0 0.476698,-0.01126 0.416475,-0.795371 -0.06007,-0.783355 0.05098,-0.688324 0.133075,-0.694638 0.08256,-0.0063 0.119059,0.468534 0.262607,0.45729 0.08271,-0.0062 0.07486,-0.171426 0.04636,-0.273388 0,0 -0.164188,-0.729602 -0.679545,-0.690018 0,0 -0.681547,0.04821 -0.669842,1.000987 z M 92.43197,103.64675 c -0.317132,-0.0984 -0.462527,-0.35194 -3.133577,-0.6586 8.73e-4,0.008 0.0018,0.0154 0.0026,0.0238 0,0 -1.080308,-0.12013 -1.779877,-0.33638 0.117828,-0.34116 0.192221,-1.01038 1.226013,-2.12689 0,0 0.0035,0.01 0.0084,0.0251 0.199455,-0.18497 1.05736,-0.987124 1.53113,-1.461819 0.538922,-0.539539 0.591135,-1.223704 0.319597,-1.494163 -0.267848,-0.268464 -0.602382,-0.471617 -0.99221,-0.400303 -0.366725,0.06762 -0.749625,0.199918 -1.702866,0.724673 0.0057,0.01201 0.01109,0.0237 0.01584,0.03607 0,0 -2.302786,1.338141 -3.719016,2.338662 -0.556016,0.0635 -1.7081,0.17204 -1.7081,0.17204 l -0.757021,0.14124 c 0,0 -0.161104,-0.19484 -0.384283,-0.42695 l -0.312045,0.23319 0.0026,0.0166 0.0054,-0.004 0.05314,0.36489 c 0,0 -0.392143,0.15447 -0.351173,0.27569 0,0 0.02498,0.19499 0.270617,0.15526 0,0 0.367807,-0.0697 0.627796,-0.19284 0.260448,-0.12383 1.034256,-0.30805 1.512338,-0.28217 l 0.05037,0.0995 c 0,0 -0.343624,0.12969 -0.563721,0.22996 -0.22056,0.0999 -0.524751,0.1859 -0.579277,0.29387 0,0 0.721131,-0.0722 1.243573,-0.27848 0,0 0.867917,-0.31959 1.636175,-0.85527 0.767491,-0.535535 2.65811,-1.8421 3.661564,-2.271669 1.003759,-0.429568 1.68469,-0.481781 1.822231,-0.03698 0.13893,0.445893 -0.327911,0.85467 -0.620243,1.10588 -0.292338,0.250594 -1.812531,1.508489 -2.467741,2.968309 -0.655054,1.46075 0.04867,1.98688 0.456366,1.89339 0,0 -0.542463,-0.31051 -0.329451,-1.03194 0,0 0.555404,0.18528 1.037337,0.27261 0.48517,0.0868 2.971081,0.33207 3.469344,0.605 0.498105,0.27309 0.974341,0.5266 0.943692,0.94415 -0.03021,0.41679 -0.720207,0.61502 -1.128981,0.68772 -0.409393,0.0722 -1.733671,-0.15757 -2.231008,-0.14048 -0.496258,0.0178 -1.202912,-0.0111 -1.870597,0.74578 0,0 -0.02894,0.16819 0.255833,0.10505 0,0 0.473617,0.75224 0.838341,0.90996 0.365031,0.15879 1.002065,0.6281 1.249734,0.8793 0.246896,0.25121 0.191911,0.6278 0.09765,0.73823 -0.09565,0.11121 -0.518594,0.26893 -1.261286,0.0556 -0.742538,-0.21208 -1.727664,-0.90395 -2.099165,-1.14577 -0.370574,-0.24104 -1.791428,-0.90349 -2.930882,-0.3393 0,0 -1.601671,1.01916 -2.748984,0.65089 0,0 0.354408,-0.25506 0.70342,-0.30234 0.348553,-0.0471 0.198224,-0.38891 0.01139,-0.37474 -0.184676,0.014 -0.684938,-0.01 -1.610608,0.62178 -0.925979,0.63073 -1.839638,1.17766 -2.80905,1.23188 -0.970648,0.0532 -1.116659,-0.76534 -0.95232,-1.33753 0.162804,-0.5725 0.849584,-1.62077 1.197985,-1.9587 0,0 0.229646,-0.51582 0.178817,-0.90519 -0.05006,-0.39044 -0.309736,0.0242 -0.30034,0.1474 0.0097,0.12337 -0.01956,0.27047 -0.120292,0.32068 -0.100578,0.0489 -1.388201,-0.78028 -1.475839,-0.96049 l -0.370731,0.29512 c 0,0 0.38259,0.50811 1.4341,0.96663 0,0 0.136152,0.1551 0.06746,0.32607 -0.0707,0.17173 -0.690479,0.7373 -0.952778,1.3805 -0.26122,0.64104 -0.395683,1.87614 0.519979,2.17848 0.915506,0.30327 1.706563,-0.19315 1.887228,-0.26861 0.181131,-0.0767 1.674373,-0.87546 1.911104,-1.03934 0,0 0.826636,0.28941 1.744452,0.074 0,0 1.276536,-0.38829 1.536521,-0.51197 0.259989,-0.12368 0.804615,-0.33145 1.152858,-0.37905 0.349011,-0.0481 0.725903,-0.0141 0.917042,0.0545 0.191605,0.0682 0.98867,0.4425 1.295171,0.66784 0.30712,0.22533 0.263377,0.1876 0.877618,0.61701 0.613624,0.42988 1.506024,0.4445 1.506024,0.4445 0,0 -8.73e-4,0.007 -0.0022,0.0176 0.435418,-0.0157 0.962789,-0.0952 1.034871,-0.3866 0.125526,-0.50088 0.167575,-0.77442 -0.895793,-1.63679 -4.37e-4,0.002 -4.37e-4,0.003 -4.37e-4,0.005 0,0 -0.936758,-0.59267 -1.269141,-1.14761 0,0 -0.197455,-0.39892 1.212772,-0.404 0,0 8.73e-4,0.004 0.0018,0.0114 0.184519,0.002 0.507505,0.0151 0.963257,0.0678 0.753317,0.0875 1.666361,0.0957 1.965627,-0.0517 0.300033,-0.1471 0.751782,-0.47594 0.761635,-0.89133 0.0089,-0.41493 -0.470072,-0.97958 -0.787666,-1.08031 z m -16.493127,-8.538819 0.753938,-0.561717 c 0,0 -1.702865,-1.652809 -4.393012,-2.648099 -2.689375,-0.997599 -3.686821,-1.024245 -5.431119,-1.056281 0,0 -1.102335,-1.388354 -1.435022,-3.021449 -0.102116,-0.496874 0.136463,-1.760932 -0.09333,-2.29585 -0.378434,-0.883623 -0.425101,-1.750458 -0.425101,-1.750458 0,0 0.03235,-0.0063 0.09703,-0.0154 0.04698,-0.04205 0.274157,-0.231957 0.688016,-0.355791 0.465453,-0.139236 1.850728,-0.474233 2.158154,-1.057822 0.308967,-0.584359 0.462527,-1.27946 0.138157,-1.441337 -0.322366,-0.161877 -0.678159,-0.197456 -0.738073,-0.172042 -0.06068,0.02526 -0.80461,0.601301 -1.263439,0.574348 0,0 -0.605154,-0.327144 -0.895792,-0.864063 -0.290333,-0.538768 -0.576658,-1.312575 -1.365712,-1.314115 0,0 -0.876385,-0.06992 -1.602752,0.193298 -0.726676,0.263223 -2.487762,1.372796 -2.979091,1.991502 0,0 -0.04297,0.252288 -0.01556,0.332687 0,0 -1.112038,0.106121 -1.847492,0.515512 -0.736533,0.409082 -1.569021,0.639037 -2.402125,2.216683 -0.833259,1.577646 -0.739305,2.255496 -0.877155,2.617756 -0.138003,0.363029 -0.441273,0.905802 -0.441273,0.905802 l -0.148169,0.184672 c -0.06022,0.183903 -0.151557,0.446665 -0.233497,0.60346 -0.135386,0.258449 -1.588736,2.162773 -1.588736,2.162773 0,0 -0.913349,1.469984 -1.175032,2.111333 -0.261684,0.642733 -0.389368,1.493089 -0.34193,2.11087 0.04744,0.619012 0.122756,1.090781 0.3638,1.610607 0.240891,0.520438 0.950469,1.606911 1.356009,1.99643 -0.584667,0.480549 -0.837879,0.668457 -1.09756,0.937226 -0.260143,0.268764 -0.716048,0.808304 -0.961096,1.262204 -0.23319,0.43203 -0.777811,1.37803 -1.173185,1.90694 -0.39368,0.52738 -3.251864,3.50909 -3.730256,4.16845 -0.432339,0.0331 -0.980657,-0.21625 -0.980657,-0.21625 3.08e-4,-0.0195 6.11e-4,-0.0379 7.86e-4,-0.0565 -0.41971,-0.14678 -1.995277,-0.71636 -4.083536,-1.65912 -2.478736,-1.11989 -3.731966,-1.34369 -5.21455,-0.64997 0,0 -0.667469,0.91751 0.352634,1.34245 1.092584,0.45544 1.368437,0.26754 2.43872,0.97419 0,0 -1.570006,1.15778 -2.19723,1.91018 -0.626607,0.75316 -0.288482,1.6394 0.735886,1.47877 1.023938,-0.16173 1.649959,-0.39677 2.231269,-0.10921 0,0 0.0097,0.39383 -0.220267,0.63873 -0.230247,0.24581 -1.062212,1.01469 -1.00775,1.46675 0.05583,0.45221 0.03814,1.03426 1.181934,0.80169 0,0 0.707175,-0.24121 1.695071,-0.87654 0,0 1.331212,0.58266 2.020706,0.92289 0.689848,0.34208 1.649405,0.41278 1.853946,0.10689 0,0 0.930754,0.50921 1.695781,1.27993 l 0.07162,0.0903 c 0.229339,0.201 0.560486,0.48763 0.658136,0.55925 0.153405,0.11275 0.720668,0.46331 1.071838,0.45637 0.352865,-0.006 0.794599,-0.18529 0.921976,-0.42294 0.126451,-0.23611 0.136308,-0.38367 0.065,-0.77165 -0.07146,-0.38983 -0.51197,-0.99821 -0.51197,-0.99821 l 2.035091,-1.04797 1.961316,-1.72643 c 0,0 0.291717,1.36663 0.75255,2.22254 l 2.681058,-1.99783 0.286482,-0.213 -0.767799,-1.49094 0.499338,-0.0929 c 0,0 0.08564,-0.23441 -0.07963,-0.22147 -0.164957,0.0126 -1.536368,-0.0276 -3.428681,1.25805 0,0 -0.705112,0.55232 -1.281924,1.13529 -0.577274,0.5842 -1.643722,1.28793 -2.89669,1.71565 0,0 0.0764,-0.62749 0.222717,-0.88748 0,0 -1.066448,0.43388 -0.193914,1.79836 0,0 0.468843,0.70973 0.183285,1.31427 0,0 -0.399224,0.1953 -0.916584,-0.0543 -0.516897,-0.25183 -2.590801,-2.41476 -3.548356,-2.46558 0,0 0.459139,0.58573 -0.387365,0.36071 -0.846981,-0.22503 -2.975317,-1.4723 -3.41277,-1.23094 0,0 0.34829,0.22102 -0.01319,0.37412 -0.361582,0.15171 -0.843455,0.35439 -1.11997,0.54184 -0.276207,0.18684 -1.186077,0.21533 -0.792612,-0.60222 0.393001,-0.81832 1.034303,-1.11696 1.060348,-1.8652 0,0 0.76746,0.27292 0.989051,0.46298 0.221654,0.19022 0.11065,-0.1745 0.11065,-0.1745 0,0 -1.223997,-1.35755 -3.618852,-0.67646 0,0 -1.094157,0.33361 -0.547995,-0.66338 0,0 1.347029,-1.34769 2.210877,-1.99381 0,0 0.304146,0.18405 0.757725,0.68832 0,0 0.212566,0.0661 0.06997,-0.1725 -0.142654,-0.23674 -0.523011,-0.87146 -1.008966,-1.24835 -0.484691,-0.37843 -1.797958,-0.73407 -2.26406,-0.8636 -0.466224,-0.1303 -0.501665,-0.65135 -0.06324,-0.82525 0.583357,-0.23104 1.804767,-0.2623 3.467418,0.31528 0,0 1.886475,0.80954 3.478969,1.55824 1.592278,0.74794 3.755824,1.37034 4.053393,0.93353 l -0.849585,-0.26692 c 0,0 0.618091,-0.58744 0.919511,-0.98312 0.301883,-0.39676 1.147001,-1.26545 1.569021,-1.71319 0,0 1.197366,-1.15424 1.603984,-1.80759 0.406156,-0.65276 0.842962,-1.59382 1.364171,-2.22793 0.701725,-0.854361 1.530208,-1.295634 1.530208,-1.295634 0,0 0.646276,0.472691 1.31889,1.126204 0,0 -0.0707,-0.367497 -0.297879,-0.639651 -0.229647,-0.272926 -2.47128,-2.465273 -2.613597,-4.321699 -0.142316,-1.855346 1.273453,-3.954664 1.802826,-4.618035 0.529989,-0.662143 0.964176,-1.326745 1.217698,-1.801597 0,0 0.46345,-1.14777 0.667068,-1.744451 0,0 0.66368,-2.705087 1.713031,-3.615047 1.050429,-0.910733 2.703392,-1.534828 4.717382,-1.772638 0,0 -0.464992,-0.130303 -1.04704,-0.127531 0,0 -0.275391,-0.07824 0.09965,-0.334844 0.19838,-0.13677 1.988577,-1.648803 3.51724,-1.725968 0,0 0.86314,-0.106121 1.306876,0.812465 0.482243,0.999602 1.439951,1.747686 2.240251,1.624469 l -0.31559,-0.319595 c 0,0 -0.153717,-0.113515 0.19422,-0.181284 0,0 0.365031,-0.111512 0.560792,-0.250748 0.197765,-0.139236 0.653363,-0.133228 0.567725,0.371501 -0.08548,0.503959 -0.49256,0.821399 -1.015927,1.027788 -0.52352,0.205927 -1.295018,0.396144 -1.705332,0.529219 -0.587285,0.189138 -0.65983,0.58975 -0.644116,0.795523 0,0 -0.78998,-0.831256 -1.123899,-0.846504 0,0 1.361552,1.242648 1.503869,2.829689 0.133691,1.485541 -0.213627,1.965936 0.512277,3.320558 0,0 0.521673,0.96849 0.892248,1.465674 0.277392,0.373195 1.408223,1.862276 1.324742,3.756131 -0.08625,1.973635 -1.434406,4.009191 -1.707179,4.238221 0,0 2.021074,-1.234641 2.259195,-4.612031 0,0 3.067498,-1.038727 7.420004,1.281924 z M 59.345759,97.08095 c 0.408928,-0.07285 0.780275,-0.641039 0.708346,-1.299942 -0.07038,-0.65783 -0.49672,-1.350619 -1.03287,-1.309649 -0.578198,0.04451 -0.81724,0.706035 -0.741615,1.426089 0.07578,0.718972 0.657057,1.256047 1.066139,1.183502 z m 9.652862,19.85281 c -0.58113,0.005 -3.124645,0.39167 -7.727589,-1.74446 l 0.0024,-9.8e-4 c -0.0019,-8.7e-4 -0.0045,-0.003 -0.0073,-0.003 l -0.534457,0.39922 0.0881,-0.0668 -4.141031,3.08768 c 0,0 0.621786,0.61962 1.74707,1.3483 0.125681,0.0818 0.259526,0.16512 0.39753,0.24875 0.02957,-0.0389 0.441427,-0.57989 0.818934,-0.87023 0.39214,-0.30018 0.885318,-0.62779 1.113733,-0.8944 0.22826,-0.26645 1.054126,-1.4076 1.299636,-2.2555 0,0 3.730103,1.5795 6.965181,1.04166 0,0 0.558635,-0.29233 -0.02218,-0.29003 z M 58.462906,99.098021 c 0.05129,0.120601 0.655055,0.695569 1.249579,0.609311 0.595141,-0.08761 0.887166,-0.606844 0.944155,-0.944155 0.05714,-0.336075 -0.234421,-0.08455 -0.234421,-0.08455 -0.850355,0.810769 -1.600288,0.476852 -1.756929,0.341157 -0.112127,-0.09503 -0.252596,-0.04252 -0.202384,0.07824 z m -1.12821,-12.54847 c 0,0 -0.631336,0.156486 -0.50704,0.956014 0.122755,0.799681 0.384746,0.965719 0.689248,0.88039 0.304193,-0.08564 0.401996,-0.445278 0.237655,-0.951394 0,0 -0.223485,-0.480856 -0.06314,-0.555403 0.160029,-0.0747 0.263224,0.457137 0.380896,0.364878 0.0724,-0.05668 0.006,-0.186983 0.006,-0.186983 0,0 -0.195145,-0.653515 -0.743619,-0.507502 z m 2.489455,4.873716 c -0.401843,0.714657 -1.161016,0.276161 -1.161016,0.276161 -0.107817,-0.05391 -0.263224,0.08225 -0.171427,0.200071 0.0918,0.116751 0.544159,0.600994 0.99113,0.48317 0.446818,-0.117057 0.618553,-0.58698 0.596528,-0.875309 -0.02218,-0.288945 -0.255215,-0.08409 -0.255215,-0.08409" />
    <g
       transform="translate(-34.210516,-43.126446)"
       style="display:inline"
       id="g4579">
      <path
         style="fill:#000000;fill-opacity:1;fill-rule:evenodd;stroke:#000000;stroke-width:0.28222224px;stroke-linecap:butt;stroke-linejoin:miter;stroke-opacity:1"
         d="m 67.318295,111.10078 c 0,8.38157 0,8.28179 0,8.28179 l 6.685302,-4.29057 z"
         id="path4575"
         inkscape:connector-curvature="0" />
      <path
         style="display:inline;fill:#000000;fill-opacity:1;fill-rule:evenodd;stroke:#000000;stroke-width:0.28222224px;stroke-linecap:butt;stroke-linejoin:miter;stroke-opacity:1"
         d="m 129.92665,111.04606 c 0,8.38158 0,8.28179 0,8.28179 l -6.68531,-4.29056 z"
         id="path4577"
         inkscape:connector-curvature="0" />
    </g>
  </g>
</svg>
