<?xml version="1.0" encoding="UTF-8" standalone="no"?>
<!-- Created with Inkscape (http://www.inkscape.org/) -->

<svg
   xmlns:dc="http://purl.org/dc/elements/1.1/"
   xmlns:cc="http://creativecommons.org/ns#"
   xmlns:rdf="http://www.w3.org/1999/02/22-rdf-syntax-ns#"
   xmlns:svg="http://www.w3.org/2000/svg"
   xmlns="http://www.w3.org/2000/svg"
   xmlns:sodipodi="http://sodipodi.sourceforge.net/DTD/sodipodi-0.dtd"
   xmlns:inkscape="http://www.inkscape.org/namespaces/inkscape"
   width="210mm"
   height="297mm"
   viewBox="0 0 210 297"
   version="1.1"
   id="svg8"
   sodipodi:docname="Ghostbusters.svg"
   inkscape:version="0.92.1 r15371">
  <defs
     id="defs2" />
  <sodipodi:namedview
     id="base"
     pagecolor="#ffffff"
     bordercolor="#666666"
     borderopacity="1.0"
     inkscape:pageopacity="0.0"
     inkscape:pageshadow="2"
     inkscape:zoom="1.979899"
     inkscape:cx="420.86806"
     inkscape:cy="635.2473"
     inkscape:document-units="mm"
     inkscape:current-layer="layer2"
     showgrid="false"
     inkscape:window-width="1920"
     inkscape:window-height="1017"
     inkscape:window-x="-8"
     inkscape:window-y="-8"
     inkscape:window-maximized="1" />
  <metadata
     id="metadata5">
    <rdf:RDF>
      <cc:Work
         rdf:about="">
        <dc:format>image/svg+xml</dc:format>
        <dc:type
           rdf:resource="http://purl.org/dc/dcmitype/StillImage" />
      </cc:Work>
    </rdf:RDF>
  </metadata>
  <g
     inkscape:label="Red Circle"
     inkscape:groupmode="layer"
     id="layer1"
     style="display:inline"
     sodipodi:insensitive="true">
    <path
       inkscape:connector-curvature="0"
       id="path4499"
       style="fill:#ed1c24;fill-opacity:1;fill-rule:nonzero;stroke:none;stroke-width:0.01549009"
       d="m 125.37036,148.84842 c -1.41828,0.005 -1.21969,0.40631 -1.21969,0.40631 0.30903,0.51613 1.1365,1.06308 1.26027,1.14394 0.01,-0.42272 0.006,-0.84684 -0.008,-1.27375 -0.017,-0.1676 -0.0325,-0.2765 -0.0325,-0.2765 z m -2.4778,2.50537 c -0.30825,-0.22662 -1.10986,-0.60303 -1.30256,-0.67165 -0.19223,-0.0691 -0.57127,-0.10316 -0.92228,-0.0548 -0.35023,0.0479 -0.89796,0.25683 -1.15943,0.38122 -0.26148,0.12438 -1.54529,0.51489 -1.54529,0.51489 -0.21842,2.60342 -1.1297,6.91524 -5.90405,10.86041 -3.05991,2.53015 -7.87563,3.92178 -12.785521,3.00476 -4.274645,-0.79711 -6.939405,-3.45165 -6.939405,-3.45165 l 24.821006,-18.50694 c 0.22446,0.23344 0.38648,0.42938 0.38648,0.42938 l 0.76134,-0.14204 c 0,0 1.15866,-0.1092 1.71785,-0.17303 1.33122,-0.9404 3.44097,-2.17713 3.71111,-2.33528 -3.66092,-9.02189 -12.83617,-15.05513 -23.06303,-14.2704 -0.0159,0.001 -0.0322,0.003 -0.0485,0.005 0.013,0.17178 0.0892,0.94118 0.42474,1.7242 0.23111,0.53797 -0.009,1.80925 0.0939,2.30896 0.33458,1.64241 1.44321,3.03869 1.44321,3.03869 1.75425,0.0322 2.75739,0.059 5.46211,1.06231 2.7055,1.00097 4.41809,2.66322 4.41809,2.66322 l -24.464895,18.22935 c -0.463464,-0.86079 -0.756846,-2.23522 -0.756846,-2.23522 l -1.972508,1.73627 -2.046706,1.05395 c 0,0 0.443017,0.61186 0.514891,1.00392 0.07172,0.39019 0.0618,0.53859 -0.06537,0.77605 -0.128103,0.23901 -0.572359,0.41963 -0.927237,0.42536 -0.353174,0.007 -0.923674,-0.34559 -1.077955,-0.45898 -0.154901,-0.11369 -0.893159,-0.76567 -0.893159,-0.76567 0,0 0.0505,0.19471 0.168532,0.54029 2.506607,6.58779 7.927518,11.64962 14.58361,13.74653 1.332148,0.40443 2.194945,0.5358 2.194945,0.5358 2.794408,0.46718 5.370258,0.58752 7.824818,0.30702 9.6353,-1.3094 17.19756,-8.5005 19.29275,-17.61967 0.005,-0.0242 0.0102,-0.0483 0.0153,-0.0725 0.0208,-0.0914 0.0403,-0.18372 0.0599,-0.27449 0.0417,-0.2006 0.0801,-0.39268 0.11463,-0.57391 8.8e-4,-0.005 0.002,-0.0105 0.003,-0.0158 0.0158,-0.0852 0.0319,-0.16791 0.046,-0.2483 0.081,-0.46595 0.14746,-0.93576 0.1992,-1.40991 -0.11339,-0.004 -0.92724,-0.0451 -1.49991,-0.44642 -0.61774,-0.43187 -0.57375,-0.39392 -0.88262,-0.62054 z m 2.23956,-5.10027 c -0.11711,-0.74244 -0.26876,-1.47249 -0.45432,-2.18797 -0.0548,-0.18154 -0.0922,-0.28812 -0.0922,-0.28812 -1.0397,1.12288 -1.11451,1.79592 -1.23301,2.13903 0.66282,0.20431 1.66565,0.32374 1.7795,0.33706 z m -40.954403,-0.22445 c 0.397631,-0.53193 0.945361,-1.48333 1.179881,-1.91783 0.246447,-0.45649 0.704954,-0.99911 0.966581,-1.26941 0.261163,-0.2703 0.51582,-0.45928 1.103824,-0.94257 -0.407854,-0.39174 -1.121482,-1.48442 -1.363748,-2.00783 -0.242419,-0.52279 -0.318166,-0.99725 -0.365875,-1.6198 -0.04771,-0.6213 0.0807,-1.47651 0.34388,-2.12291 0.263176,-0.64501 1.181739,-2.12339 1.181739,-2.12339 0,0 1.461644,-1.91519 1.597802,-2.17511 0.08241,-0.15754 0.173954,-0.42025 0.234366,-0.60566 0,-3.2e-4 4.83e-4,-8.8e-4 4.83e-4,-0.001 l 0.149014,-0.18573 c 0,0 0.0015,-0.003 0.004,-0.008 -0.03935,0.0274 -0.07869,0.0558 -0.11788,0.0838 -1.55e-4,-4.4e-4 1.55e-4,-0.002 7.9e-4,-0.003 -0.02773,0.0202 -0.05483,0.0403 -0.08256,0.0598 -0.01735,0.0129 -0.03578,0.0249 -0.05344,0.0384 7.91e-4,0 7.91e-4,1.5e-4 7.91e-4,8.8e-4 -4.578406,3.31612 -7.854095,8.26304 -9.035059,13.91784 -0.308563,1.52919 -0.473688,3.13969 -0.482362,4.8563 0,0 0.551447,0.25079 0.986254,0.21748 0.481122,-0.66313 3.355618,-3.66185 3.751545,-4.19223" />
    <g
       id="g4573">
      <path
         inkscape:connector-curvature="0"
         id="path5929"
         d="m 67.318295,111.10078 c 0,8.38157 0,8.28179 0,8.28179 l 6.685302,-4.29057 z"
         style="fill:#000000;fill-opacity:1;fill-rule:evenodd;stroke:#000000;stroke-width:0.28222224px;stroke-linecap:butt;stroke-linejoin:miter;stroke-opacity:1" />
      <path
         inkscape:connector-curvature="0"
         id="path5931"
         d="m 129.92665,111.04606 c 0,8.38158 0,8.28179 0,8.28179 l -6.68531,-4.29056 z"
         style="display:inline;fill:#000000;fill-opacity:1;fill-rule:evenodd;stroke:#000000;stroke-width:0.28222224px;stroke-linecap:butt;stroke-linejoin:miter;stroke-opacity:1" />
    </g>
  </g>
  <g
     inkscape:groupmode="layer"
     id="layer2"
     inkscape:label="Black Outline"
     style="display:inline"
     sodipodi:insensitive="true">
    <path
       inkscape:connector-curvature="0"
       id="path4501"
       style="fill:#231f20;fill-opacity:1;fill-rule:nonzero;stroke:none;stroke-width:0.01549009"
       d="m 92.906538,127.74906 c -0.441468,0.17364 -0.8518,0.85784 -0.834451,1.08508 0.01781,0.22879 0.294311,0.35442 0.420401,0.0931 0,0 0.112613,-0.48763 0.689774,-1.11637 0.05499,-0.10797 -0.0127,-0.16621 -0.275724,-0.0618 z m 4.630143,0.81215 c 0,0 0.217016,0.10889 0.293691,0.0194 0.0759,-0.0891 -0.0395,-0.24707 -0.0395,-0.24707 0,0 -0.552377,-0.66716 -0.96906,-0.92677 l -0.189444,-0.0277 -0.33629,0.23498 0.02943,0.12238 c 0,0 0.78225,0.39887 1.211171,0.82485 z m -1.421371,2.13252 c 0.01146,0.95883 0.264106,0.9974 0.493669,1.00081 0,0 0.479418,-0.0113 0.418852,-0.79991 -0.06041,-0.78782 0.05127,-0.69225 0.133834,-0.6986 0.08303,-0.006 0.119739,0.47121 0.264107,0.4599 0.08318,-0.006 0.07528,-0.1724 0.04662,-0.27495 0,0 -0.165125,-0.73376 -0.683423,-0.69396 0,0 -0.685437,0.0485 -0.673664,1.00671 z m 32.17601,16.19938 c -0.31894,-0.099 -0.46516,-0.35395 -3.15146,-0.66236 8.8e-4,0.008 0.002,0.0155 0.003,0.024 0,0 -1.08647,-0.12082 -1.79003,-0.3383 0.1185,-0.34311 0.19332,-1.01615 1.23301,-2.13903 0,0 0.003,0.01 0.008,0.0252 0.20059,-0.18604 1.06339,-0.99277 1.53987,-1.47017 0.542,-0.54262 0.59451,-1.23069 0.32141,-1.50269 -0.26937,-0.27 -0.60581,-0.47431 -0.99786,-0.40259 -0.36882,0.068 -0.75391,0.20106 -1.71259,0.72881 0.006,0.0121 0.0112,0.0238 0.0159,0.0362 0,0 -2.31592,1.34577 -3.74023,2.35201 -0.5592,0.0638 -1.71785,0.17302 -1.71785,0.17302 l -0.76134,0.14205 c 0,0 -0.16203,-0.19595 -0.38648,-0.42939 l -0.31383,0.23452 0.003,0.0167 0.005,-0.004 0.0534,0.36696 c 0,0 -0.39438,0.15536 -0.35317,0.27727 0,0 0.0251,0.19611 0.27216,0.15614 0,0 0.3699,-0.07 0.63137,-0.19394 0.26194,-0.12453 1.04016,-0.30979 1.52098,-0.28377 l 0.0507,0.10006 c 0,0 -0.34559,0.13043 -0.56694,0.23127 -0.22182,0.10053 -0.52775,0.18697 -0.58259,0.29555 0,0 0.72525,-0.0726 1.25067,-0.28006 0,0 0.87287,-0.32142 1.64552,-0.86016 0.77187,-0.53859 2.67328,-1.85262 3.68246,-2.28464 1.00949,-0.43202 1.6943,-0.48453 1.83263,-0.0372 0.13972,0.44844 -0.32978,0.85955 -0.62379,1.11219 -0.294,0.25203 -1.82287,1.5171 -2.48182,2.98525 -0.65879,1.46908 0.049,1.99822 0.45897,1.9042 0,0 -0.54556,-0.31228 -0.33133,-1.03784 0,0 0.55857,0.18635 1.04326,0.27418 0.48794,0.0874 2.98803,0.33396 3.48914,0.60845 0.50095,0.27464 0.9799,0.5296 0.94908,0.94954 -0.0303,0.41916 -0.72432,0.61852 -1.13543,0.69163 -0.41172,0.0727 -1.74356,-0.15846 -2.24374,-0.14127 -0.49909,0.0178 -1.20977,-0.0112 -1.88127,0.75003 0,0 -0.0291,0.16915 0.25729,0.10565 0,0 0.47632,0.75653 0.84313,0.91515 0.36711,0.1597 1.00778,0.63169 1.25686,0.88433 0.24831,0.25264 0.19301,0.63138 0.0982,0.74244 -0.0962,0.11184 -0.52155,0.27046 -1.26848,0.0559 -0.74678,-0.2133 -1.73753,-0.90911 -2.11115,-1.15231 -0.37269,-0.24242 -1.80165,-0.90865 -2.94761,-0.34125 0,0 -1.61081,1.02498 -2.76467,0.65462 0,0 0.35643,-0.25652 0.70744,-0.30407 0.35053,-0.0474 0.19935,-0.39113 0.0115,-0.37688 -0.18573,0.0141 -0.68885,-0.01 -1.6198,0.62534 -0.93126,0.63432 -1.85014,1.18437 -2.82508,1.23889 -0.97619,0.0534 -1.12303,-0.7697 -0.95776,-1.34515 0.16374,-0.57577 0.85444,-1.63003 1.20482,-1.96988 0,0 0.23096,-0.51876 0.17984,-0.91036 -0.0503,-0.39267 -0.3115,0.0243 -0.30206,0.14825 0.01,0.12407 -0.0197,0.272 -0.12097,0.3225 -0.10115,0.0491 -1.39612,-0.78473 -1.48426,-0.96596 l -0.37285,0.29679 c 0,0 0.38477,0.51102 1.44229,0.97216 0,0 0.13693,0.15598 0.0678,0.32792 -0.0711,0.17272 -0.69442,0.74151 -0.95822,1.38838 -0.26271,0.6447 -0.39794,1.88684 0.52295,2.19092 0.92073,0.305 1.71629,-0.19425 1.89799,-0.27015 0.18217,-0.0771 1.68393,-0.88046 1.92202,-1.04527 0,0 0.83135,0.29106 1.7544,0.0744 0,0 1.28382,-0.3905 1.54529,-0.51489 0.26148,-0.12438 0.80921,-0.33335 1.15944,-0.38121 0.351,-0.0483 0.73005,-0.0142 0.92228,0.0548 0.1927,0.0686 0.9943,0.44503 1.30256,0.67164 0.30887,0.22662 0.26488,0.18867 0.88262,0.62054 0.61713,0.43233 1.51463,0.44704 1.51463,0.44704 0,0 -8.8e-4,0.007 -0.002,0.0177 0.4379,-0.0158 0.96828,-0.0957 1.04077,-0.3888 0.12625,-0.50374 0.16853,-0.77884 -0.9009,-1.64613 -4.4e-4,0.002 -4.4e-4,0.003 -4.4e-4,0.005 0,0 -0.94211,-0.59605 -1.27639,-1.15416 0,0 -0.19858,-0.4012 1.2197,-0.40631 0,0 8.8e-4,0.004 0.002,0.0115 0.18557,0.002 0.5104,0.0152 0.96875,0.0682 0.75762,0.088 1.67587,0.0962 1.97685,-0.052 0.30174,-0.14793 0.75606,-0.47865 0.76598,-0.89641 0.009,-0.4173 -0.47276,-0.98517 -0.79216,-1.08648 z m -16.58725,-8.58755 0.75824,-0.56492 c 0,0 -1.71258,-1.66225 -4.41808,-2.66322 -2.70473,-1.00329 -3.70786,-1.03009 -5.46212,-1.06231 0,0 -1.10862,-1.39628 -1.44321,-3.03869 -0.1027,-0.49971 0.13724,-1.77098 -0.0939,-2.30895 -0.38059,-0.88867 -0.42753,-1.76045 -0.42753,-1.76045 0,0 0.0325,-0.006 0.0976,-0.0155 0.0472,-0.0423 0.27572,-0.23328 0.69195,-0.35782 0.4681,-0.14003 1.86129,-0.47694 2.17047,-1.06386 0.31073,-0.5877 0.46516,-1.28676 0.13894,-1.44956 -0.3242,-0.16281 -0.68203,-0.19859 -0.74228,-0.17303 -0.061,0.0254 -0.8092,0.60473 -1.27066,0.57763 0,0 -0.6086,-0.32901 -0.9009,-0.869 -0.29199,-0.54184 -0.57995,-1.32006 -1.373504,-1.32161 0,0 -0.881386,-0.0703 -1.611899,0.1944 -0.730823,0.26472 -2.501959,1.38063 -2.996093,2.00287 0,0 -0.04322,0.25373 -0.01564,0.33458 0,0 -1.118384,0.10673 -1.858036,0.51846 -0.740736,0.41141 -1.577975,0.64268 -2.415834,2.22933 -0.838014,1.58665 -0.743524,2.26837 -0.882161,2.6327 -0.138791,0.3651 -0.443791,0.91097 -0.443791,0.91097 l -0.149014,0.18572 c -0.06057,0.18496 -0.152423,0.44922 -0.23483,0.60691 -0.136158,0.25992 -1.597803,2.17511 -1.597803,2.17511 0,0 -0.918563,1.47838 -1.181739,2.12339 -0.263177,0.6464 -0.391589,1.50161 -0.34388,2.12291 0.04771,0.62255 0.123456,1.09701 0.365876,1.6198 0.242265,0.52341 0.955893,1.61609 1.363747,2.00783 -0.588003,0.48329 -0.84266,0.67227 -1.103824,0.94257 -0.261627,0.2703 -0.720134,0.81292 -0.966581,1.26941 -0.23452,0.4345 -0.782249,1.3859 -1.17988,1.91783 -0.395927,0.53038 -3.270423,3.52911 -3.751545,4.19224 -0.434806,0.0333 -0.986254,-0.21748 -0.986254,-0.21748 3.1e-4,-0.0197 6.15e-4,-0.0381 7.91e-4,-0.0568 -0.422105,-0.14762 -2.006664,-0.72044 -4.106841,-1.66859 -2.492883,-1.12629 -3.753265,-1.35136 -5.24431,-0.65368 0,0 -0.671278,0.92274 0.354646,1.35011 1.09882,0.45804 1.376248,0.26906 2.452639,0.97975 0,0 -1.578967,1.16439 -2.20977,1.92108 -0.630183,0.75747 -0.290129,1.64876 0.740086,1.48721 1.029781,-0.16265 1.659375,-0.39903 2.244002,-0.10983 0,0 0.0098,0.39608 -0.221524,0.64238 -0.231561,0.24722 -1.068273,1.02048 -1.013501,1.47512 0.05615,0.45479 0.03836,1.04015 1.188679,0.80625 0,0 0.711212,-0.24257 1.704746,-0.88154 0,0 1.338809,0.58599 2.032238,0.92817 0.693785,0.34403 1.658818,0.41513 1.864527,0.1075 0,0 0.936066,0.5121 1.705459,1.28723 l 0.07203,0.0908 c 0.230648,0.20215 0.563685,0.49042 0.661892,0.56244 0.154281,0.11339 0.724781,0.46595 1.077955,0.45898 0.354878,-0.006 0.799134,-0.18635 0.927237,-0.42536 0.127174,-0.23746 0.137087,-0.38586 0.06537,-0.77605 -0.07187,-0.39206 -0.514891,-1.00392 -0.514891,-1.00392 l 2.046706,-1.05395 1.972508,-1.73628 c 0,0 0.293382,1.37444 0.756846,2.23522 l 2.69636,-2.00922 0.288115,-0.21422 -0.77218,-1.49945 0.502188,-0.0934 c 0,0 0.08612,-0.23576 -0.08008,-0.22275 -0.165899,0.0127 -1.545136,-0.0277 -3.448248,1.26523 0,0 -0.709137,0.55548 -1.289241,1.14177 -0.580568,0.58755 -1.653102,1.29529 -2.913221,1.72545 0,0 0.07683,-0.63107 0.223987,-0.89254 0,0 -1.072534,0.43636 -0.19502,1.80862 0,0 0.471518,0.71378 0.184332,1.32177 0,0 -0.401503,0.19642 -0.921815,-0.0547 -0.519848,-0.25326 -2.605588,-2.42853 -3.568607,-2.47965 0,0 0.461759,0.58908 -0.389576,0.36277 -0.851815,-0.2263 -2.992298,-1.48069 -3.432247,-1.23797 0,0 0.350277,0.22229 -0.01326,0.37626 -0.363645,0.15258 -0.848268,0.35643 -1.126362,0.54494 -0.277783,0.1879 -1.192845,0.21655 -0.797135,-0.60566 0.395245,-0.82299 1.040206,-1.12334 1.0664,-1.87585 0,0 0.77184,0.27449 0.994695,0.46563 0.222919,0.1913 0.111281,-0.1755 0.111281,-0.1755 0,0 -1.230981,-1.3653 -3.639505,-0.68032 0,0 -1.1004,0.33551 -0.551122,-0.66716 0,0 1.354717,-1.35538 2.223495,-2.0052 0,0 0.305882,0.18511 0.76205,0.69226 0,0 0.213779,0.0665 0.07037,-0.17349 -0.143469,-0.23808 -0.525996,-0.87643 -1.014724,-1.25548 -0.487458,-0.38058 -1.808221,-0.73825 -2.276982,-0.86852 -0.468884,-0.13105 -0.504527,-0.65508 -0.0636,-0.82996 0.586687,-0.23235 1.815067,-0.2638 3.487207,0.31708 0,0 1.897241,0.81416 3.498823,1.56713 1.601366,0.7522 3.777259,1.37816 4.076528,0.93886 l -0.854434,-0.26845 c 0,0 0.621617,-0.59079 0.924758,-0.98873 0.303606,-0.39902 1.153547,-1.27267 1.577976,-1.72296 0,0 1.204199,-1.16083 1.613138,-1.81792 0.408473,-0.65647 0.847772,-1.60291 1.371957,-2.24064 0.705728,-0.85923 1.53894,-1.30303 1.53894,-1.30303 0,0 0.649964,0.47539 1.326417,1.13264 0,0 -0.0711,-0.3696 -0.299579,-0.64331 -0.230957,-0.27448 -2.485384,-2.47934 -2.628513,-4.34636 -0.143129,-1.86594 1.280721,-3.97724 1.813115,-4.64439 0.533014,-0.66592 0.969679,-1.33432 1.224647,-1.81188 0,0 0.466096,-1.15432 0.670875,-1.75441 0,0 0.667468,-2.72052 1.722808,-3.63568 1.056424,-0.91593 2.718821,-1.54358 4.744304,-1.78275 0,0 -0.467645,-0.13105 -1.053016,-0.12826 0,0 -0.276963,-0.0787 0.100221,-0.33675 0.199513,-0.13756 1.999926,-1.65822 3.537317,-1.73582 0,0 0.868067,-0.10673 1.314328,0.8171 0.485,1.00531 1.44817,1.75766 2.25304,1.63374 l -0.3174,-0.32142 c 0,0 -0.15459,-0.11416 0.19534,-0.18232 0,0 0.36711,-0.11215 0.56399,-0.25218 0.19889,-0.14003 0.65709,-0.13399 0.57096,0.37362 -0.086,0.50684 -0.49537,0.82609 -1.02172,1.03366 -0.52651,0.2071 -1.30241,0.3984 -1.71506,0.53224 -0.59064,0.19021 -0.6636,0.59311 -0.64779,0.80006 0,0 -0.794495,-0.836 -1.13032,-0.85134 0,0 1.36932,1.24974 1.51245,2.84585 0.13446,1.49401 -0.21484,1.97715 0.51521,3.3395 0,0 0.52465,0.97402 0.89734,1.47404 0.27897,0.37533 1.41625,1.87291 1.33229,3.77757 -0.0867,1.9849 -1.44259,4.03207 -1.71692,4.26241 0,0 2.03261,-1.24169 2.27209,-4.63835 0,0 3.085,-1.04466 7.46235,1.28924 z m -16.687782,1.98428 c 0.411262,-0.0733 0.784728,-0.6447 0.712389,-1.30736 -0.07079,-0.66159 -0.499555,-1.35833 -1.038765,-1.31713 -0.581498,0.0448 -0.821904,0.71007 -0.745848,1.43423 0.07621,0.72308 0.660807,1.26322 1.072224,1.19026 z m 9.707942,19.9661 c -0.58444,0.005 -3.14247,0.39392 -7.771681,-1.7544 l 0.0023,-0.001 c -0.0018,-8.8e-4 -0.0045,-0.003 -0.0073,-0.003 l -0.537506,0.4015 0.0886,-0.0672 -4.164665,3.10529 c 0,0 0.625335,0.62317 1.75704,1.356 0.1264,0.0823 0.261009,0.16606 0.3998,0.25017 0.02974,-0.039 0.443946,-0.5832 0.823608,-0.87519 0.394377,-0.3019 0.89037,-0.63138 1.120088,-0.89951 0.229563,-0.26798 1.060142,-1.41564 1.307054,-2.26837 0,0 3.751392,1.58851 7.004922,1.0476 0,0 0.56183,-0.294 -0.0223,-0.29168 z M 94.128396,142.31842 c 0.05158,0.12129 0.658794,0.69954 1.256711,0.61279 0.598537,-0.0881 0.892229,-0.61031 0.949543,-0.94954 0.05747,-0.338 -0.23576,-0.085 -0.23576,-0.085 -0.855207,0.81539 -1.60942,0.47957 -1.766954,0.3431 -0.112768,-0.0956 -0.254038,-0.0428 -0.20354,0.0787 z m -1.134649,-12.62009 c 0,0 -0.634939,0.15738 -0.509934,0.96147 0.123456,0.80425 0.386943,0.97123 0.693182,0.88542 0.305929,-0.0861 0.404291,-0.44782 0.239012,-0.95683 0,0 -0.224761,-0.4836 -0.06351,-0.55857 0.160942,-0.0751 0.264725,0.45975 0.383069,0.36696 0.0728,-0.057 0.006,-0.18805 0.006,-0.18805 0,0 -0.196259,-0.65725 -0.747861,-0.5104 z m 2.503663,4.90153 c -0.404136,0.71874 -1.167643,0.27774 -1.167643,0.27774 -0.10843,-0.0542 -0.264726,0.0827 -0.172404,0.20121 0.09232,0.11742 0.547264,0.60443 0.996787,0.48593 0.449368,-0.11772 0.622082,-0.59033 0.599931,-0.8803 -0.02231,-0.2906 -0.256671,-0.0846 -0.256671,-0.0846" />
    <g
       style="display:inline"
       id="g4579">
      <path
         style="fill:#000000;fill-opacity:1;fill-rule:evenodd;stroke:#000000;stroke-width:0.28222224px;stroke-linecap:butt;stroke-linejoin:miter;stroke-opacity:1"
         d="m 67.318295,111.10078 c 0,8.38157 0,8.28179 0,8.28179 l 6.685302,-4.29057 z"
         id="path4575"
         inkscape:connector-curvature="0" />
      <path
         style="display:inline;fill:#000000;fill-opacity:1;fill-rule:evenodd;stroke:#000000;stroke-width:0.28222224px;stroke-linecap:butt;stroke-linejoin:miter;stroke-opacity:1"
         d="m 129.92665,111.04606 c 0,8.38158 0,8.28179 0,8.28179 l -6.68531,-4.29056 z"
         id="path4577"
         inkscape:connector-curvature="0" />
    </g>
  </g>
</svg>
