<?xml version="1.0" encoding="UTF-8" standalone="no"?>
<svg
   xmlns:dc="http://purl.org/dc/elements/1.1/"
   xmlns:cc="http://creativecommons.org/ns#"
   xmlns:rdf="http://www.w3.org/1999/02/22-rdf-syntax-ns#"
   xmlns:svg="http://www.w3.org/2000/svg"
   xmlns="http://www.w3.org/2000/svg"
   xmlns:sodipodi="http://sodipodi.sourceforge.net/DTD/sodipodi-0.dtd"
   xmlns:inkscape="http://www.inkscape.org/namespaces/inkscape"
   viewBox="0 0 990 765"
   height="8.5in"
   width="11in"
   xml:space="preserve"
   version="1.1"
   id="svg3370"
   inkscape:version="0.91 r13725"
   sodipodi:docname="Manta ray.svg"><sodipodi:namedview
     pagecolor="#ffffff"
     bordercolor="#666666"
     borderopacity="1"
     objecttolerance="10"
     gridtolerance="10"
     guidetolerance="10"
     inkscape:pageopacity="0"
     inkscape:pageshadow="2"
     inkscape:window-width="1280"
     inkscape:window-height="700"
     id="namedview4221"
     showgrid="false"
     inkscape:zoom="4.1562594"
     inkscape:cx="277.2741"
     inkscape:cy="413.22289"
     inkscape:window-x="0"
     inkscape:window-y="1"
     inkscape:window-maximized="1"
     inkscape:current-layer="svg3370" /><metadata
     id="metadata3376"><rdf:RDF><cc:Work
         rdf:about=""><dc:format>image/svg+xml</dc:format><dc:type
           rdf:resource="http://purl.org/dc/dcmitype/StillImage" /><dc:title></dc:title></cc:Work></rdf:RDF></metadata><defs
     id="defs3374"><clipPath
       id="clipPath3386"
       clipPathUnits="userSpaceOnUse"><path
         id="path3388"
         d="M 0,980 1400,980 1400,0 0,0 0,980 Z" /></clipPath></defs><g
     transform="matrix(1.25,0,0,-1.25,-112.13855,804.93976)"
     id="g3378"><g
       id="g3466"><g
         id="g3438"><g
           mask="none"
           id="g3384"
           clip-path="url(#clipPath3386)"
           transform="translate(173.17269,-202.69076)"><g
             clip-path="none"
             id="g3390"
             transform="translate(359.9063,751.9473)" /><g
             clip-path="none"
             id="g3394"
             transform="translate(423.1919,189.4224)" /><g
             clip-path="none"
             id="g3398"
             transform="translate(900.6035,422.042)" /><g
             clip-path="none"
             id="g3402"
             transform="translate(703.8682,177.8306)" /><g
             clip-path="none"
             id="g3406"
             transform="translate(1237.9009,818.4707)" /><g
             clip-path="none"
             id="g3410"
             transform="translate(645.022,314.6611)" /><g
             clip-path="none"
             id="g3414"
             transform="translate(81.2661,700.8115)" /><g
             clip-path="none"
             id="g3418"
             transform="translate(296.9512,90.168)" /><g
             clip-path="none"
             id="g3422"
             transform="translate(707.97039,116.67513)"><path
               d="m -285.34137,334.53815 c -30.11,44.449 -70.761,84.778 -80.619,94.323 0.067,2.078 0.028,4.757 0.028,8.092 0,13.441 2.501,44.703 12.505,58.145 10.003,13.441 15.004,31.573 16.568,43.765 1.563,12.191 4.375,23.758 -8.753,4.376 -13.129,-19.382 -49.706,-19.693 -68.774,-19.693 -19.07,0 -27.51,5.939 -36.576,5.939 -9.066,0 -15.317,6.564 -19.069,2.814 -3.751,-3.751 2.027,-5.589 0,-8.753 -1.352,-2.11 -5.782,-1.525 -18.815,-4.123 -18.099,-3.607 -19.792,6.154 -23.699,2.247 -3.908,-3.908 8.283,-6.409 5.313,-9.379 -2.97,-2.97 1.877,-7.19 7.504,-8.753 5.627,-1.563 6.252,-9.377 -0.626,-13.129 -6.878,-3.751 -8.128,-4.377 -33.136,-26.572 -25.009,-22.195 -37.513,-6.252 -45.642,-10.003 -8.127,-3.751 23.447,-25.321 50.956,-20.945 27.509,4.375 74.4,8.752 99.722,4.377 25.321,-4.376 46.891,-7.816 55.02,-12.193 4.093,-2.204 5.964,-2.579 6.815,-0.697 9.365,-10.108 58.608,-63.355 81.278,-89.838"
               style="fill:#231f20;fill-opacity:1;fill-rule:nonzero;stroke:none"
               id="path3424"
               inkscape:connector-curvature="0" /></g><g
             clip-path="none"
             id="g3426"
             transform="translate(681.8154,702.3066)" /><g
             clip-path="none"
             id="g3434"
             transform="translate(724.9883,437.5898)" /></g></g></g></g></svg>