<?xml version="1.0" encoding="UTF-8" standalone="no"?>
<!-- Created with Inkscape (http://www.inkscape.org/) -->

<svg
   xmlns:dc="http://purl.org/dc/elements/1.1/"
   xmlns:cc="http://creativecommons.org/ns#"
   xmlns:rdf="http://www.w3.org/1999/02/22-rdf-syntax-ns#"
   xmlns:svg="http://www.w3.org/2000/svg"
   xmlns="http://www.w3.org/2000/svg"
   xmlns:sodipodi="http://sodipodi.sourceforge.net/DTD/sodipodi-0.dtd"
   xmlns:inkscape="http://www.inkscape.org/namespaces/inkscape"
   id="svg4285"
   version="1.1"
   inkscape:version="0.91 r13725"
   xml:space="preserve"
   width="1750"
   height="1225"
   viewBox="0 0 1750 1225"
   sodipodi:docname="Card suits.svg"><metadata
     id="metadata4291"><rdf:RDF><cc:Work
         rdf:about=""><dc:format>image/svg+xml</dc:format><dc:type
           rdf:resource="http://purl.org/dc/dcmitype/StillImage" /><dc:title></dc:title></cc:Work></rdf:RDF></metadata><defs
     id="defs4289"><clipPath
       clipPathUnits="userSpaceOnUse"
       id="clipPath4311"><path
         d="m 1709.71,3874.53 10827.5,0 0,2609.98 -10827.5,0 0,-2609.98 z"
         id="path4313"
         inkscape:connector-curvature="0" /></clipPath><clipPath
       clipPathUnits="userSpaceOnUse"
       id="clipPath4325"><path
         d="m 2565.23,4236.55 -855.52,1110.09 851.84,1105.31 3.68,-4.78 3.68,4.78 851.84,-1105.31 -855.52,-1110.09"
         id="path4327"
         inkscape:connector-curvature="0" /></clipPath><linearGradient
       x1="0"
       y1="0"
       x2="1"
       y2="0"
       gradientUnits="userSpaceOnUse"
       gradientTransform="matrix(1e-7,-1340.6,-1340.6,-1e-7,7173.74,7090)"
       spreadMethod="pad"
       id="linearGradient4329"><stop
         style="stop-opacity:1;stop-color:#ee2a22"
         offset="0"
         id="stop4331" /><stop
         style="stop-opacity:1;stop-color:#e9e9e9"
         offset="1"
         id="stop4333" /></linearGradient><clipPath
       clipPathUnits="userSpaceOnUse"
       id="clipPath4341"><path
         d="m 2565.23,6447.17 -3.68,4.78 2.52,3.27 2.32,0 2.52,-3.27 -3.68,-4.78"
         id="path4343"
         inkscape:connector-curvature="0" /></clipPath><linearGradient
       x1="0"
       y1="0"
       x2="1"
       y2="0"
       gradientUnits="userSpaceOnUse"
       gradientTransform="matrix(1e-7,-1340.6,-1340.6,-1e-7,7173.74,7090)"
       spreadMethod="pad"
       id="linearGradient4345"><stop
         style="stop-opacity:1;stop-color:#ee2a22"
         offset="0"
         id="stop4347" /><stop
         style="stop-opacity:1;stop-color:#ee2a22"
         offset="1"
         id="stop4349" /></linearGradient><clipPath
       clipPathUnits="userSpaceOnUse"
       id="clipPath4357"><path
         d="m 9504.75,5051.91 -1009.07,55.28 -307.16,732.82 c 166.47,232.44 333.99,498.03 365.44,611.94 3.33,-12.05 5.13,-22.4 5.25,-30.84 0,-0.59 0,-1.15 0,-1.72 0.01,0.57 0.01,1.13 0,1.72 0.11,8.44 1.84,18.79 5.03,30.84 40.29,-152.22 314.15,-575.28 514.94,-828.16 181.77,-228.92 308.1,-326.06 425.57,-571.88"
         id="path4359"
         inkscape:connector-curvature="0" /></clipPath><linearGradient
       x1="0"
       y1="0"
       x2="1"
       y2="0"
       gradientUnits="userSpaceOnUse"
       gradientTransform="matrix(1e-7,-1340.6,-1340.6,-1e-7,7173.74,7090)"
       spreadMethod="pad"
       id="linearGradient4361"><stop
         style="stop-opacity:1;stop-color:#ee2a22"
         offset="0"
         id="stop4363" /><stop
         style="stop-opacity:1;stop-color:#e9e9e9"
         offset="1"
         id="stop4365" /></linearGradient><clipPath
       clipPathUnits="userSpaceOnUse"
       id="clipPath4373"><path
         d="m 8559.21,6419.39 c 0,0.57 0,1.13 0,1.72 0.01,-0.59 0.01,-1.15 0,-1.72 m 0,1.72 c -0.12,8.44 -1.92,18.79 -5.25,30.84 0.31,1.11 0.6,2.19 0.88,3.27 l 8.56,0 c 0.26,-1.08 0.54,-2.16 0.84,-3.27 -3.19,-12.05 -4.92,-22.4 -5.03,-30.84"
         id="path4375"
         inkscape:connector-curvature="0" /></clipPath><linearGradient
       x1="0"
       y1="0"
       x2="1"
       y2="0"
       gradientUnits="userSpaceOnUse"
       gradientTransform="matrix(1e-7,-1340.6,-1340.6,-1e-7,7173.74,7090)"
       spreadMethod="pad"
       id="linearGradient4377"><stop
         style="stop-opacity:1;stop-color:#ee2a22"
         offset="0"
         id="stop4379" /><stop
         style="stop-opacity:1;stop-color:#ee2a22"
         offset="1"
         id="stop4381" /></linearGradient><clipPath
       clipPathUnits="userSpaceOnUse"
       id="clipPath4389"><path
         d="m 11540.2,3874.53 0,0 c 0,0.49 0,0.99 0,1.49 0,-0.5 0,-1 0,-1.49 m 0,1.49 c -1.4,99.77 -283.5,508.48 -486.2,745.24 -203.6,237.97 -332.8,311.83 -462.6,640.06 -128.5,325.39 102.1,634.66 479.5,634.66 3.3,0 6.6,-0.02 9.9,-0.07 263.1,-3.76 381.5,-195.67 429.8,-315.66 l 0,157.04 c 0,0 -84,566.46 -676.8,628.46 l -94.5,0 0,84.12 1614.2,0 0,4.16 0,-88.28 -94.6,0 c -592.7,-62 -676.8,-628.46 -676.8,-628.46 l 0,-136.43 c 56.9,120.13 181.3,291.5 429.8,295.05 3.3,0.05 6.7,0.07 9.9,0.07 305.2,0 514.4,-202.17 515.4,-451.61 l 0,-3.29 c -0.3,-58.06 -11.7,-118.61 -35.9,-179.76 -129.7,-328.23 -259,-402.09 -462.6,-640.06 -202.6,-236.76 -496.9,-645.47 -498.5,-745.24"
         id="path4391"
         inkscape:connector-curvature="0" /></clipPath><linearGradient
       x1="0"
       y1="0"
       x2="1"
       y2="0"
       gradientUnits="userSpaceOnUse"
       gradientTransform="matrix(1e-7,-1340.6,-1340.6,-1e-7,7173.74,7090)"
       spreadMethod="pad"
       id="linearGradient4393"><stop
         style="stop-opacity:1;stop-color:#231f20"
         offset="0"
         id="stop4395" /><stop
         style="stop-opacity:1;stop-color:#e9e9e9"
         offset="1"
         id="stop4397" /></linearGradient><clipPath
       clipPathUnits="userSpaceOnUse"
       id="clipPath4405"><path
         d="m 10739.3,6449.87 1614.2,0 0,4.1602 -1614.2,0 0,-4.1602 z"
         id="path4407"
         inkscape:connector-curvature="0" /></clipPath><linearGradient
       x1="0"
       y1="0"
       x2="1"
       y2="0"
       gradientUnits="userSpaceOnUse"
       gradientTransform="matrix(1e-7,-1340.6,-1340.6,-1e-7,7173.74,7090)"
       spreadMethod="pad"
       id="linearGradient4409"><stop
         style="stop-opacity:1;stop-color:#231f20"
         offset="0"
         id="stop4411" /><stop
         style="stop-opacity:1;stop-color:#231f20"
         offset="1"
         id="stop4413" /></linearGradient><clipPath
       clipPathUnits="userSpaceOnUse"
       id="clipPath4421"><path
         d="m 4517.49,5232.91 c -37.82,71.81 -59.21,153.59 -59.21,240.38 0,285.34 231.3,516.64 516.64,516.64 64.44,0 126.08,-11.9 182.97,-33.45 l -0.01,0.12 c 0,0 240.45,-64.93 398.51,-352.63 l 0,173.23 c 0,0 -81.04,546.01 -652.38,605.78 l -91.18,0 0,72.24 1556,0 0,-72.24 -91.17,0 C 5706.32,6323.21 5625.27,5777.2 5625.27,5777.2 l 0,-161.57 c 29.08,64.05 188.26,374.09 544.67,374.09 4.43,0 8.86,-0.05 13.35,-0.14 l -0.01,-0.04 c 3.07,0.09 6.12,0.22 9.19,0.3 l -755.13,-642.56 -408.15,299.65 c -16.05,11.78 -34.7,17.46 -53.19,17.46 -27.68,0 -54.98,-12.72 -72.62,-36.74 l -23.68,-32.26 -1.89,1.3 c -15.6,10.77 -33.4,15.93 -51.03,15.93 -28.58,0 -56.69,-13.59 -74.16,-38.9 l -235.13,-340.81"
         id="path4423"
         inkscape:connector-curvature="0" /></clipPath><linearGradient
       x1="0"
       y1="0"
       x2="1"
       y2="0"
       gradientUnits="userSpaceOnUse"
       gradientTransform="matrix(1e-7,-1340.6,-1340.6,-1e-7,7173.74,7090)"
       spreadMethod="pad"
       id="linearGradient4425"><stop
         style="stop-opacity:1;stop-color:#231f20"
         offset="0"
         id="stop4427" /><stop
         style="stop-opacity:1;stop-color:#e9e9e9"
         offset="1"
         id="stop4429" /></linearGradient><clipPath
       clipPathUnits="userSpaceOnUse"
       id="clipPath4439"><path
         d="m 5348.68,5271.84 -468.98,323.55 23.68,32.26 c 17.64,24.02 44.94,36.74 72.62,36.74 18.49,0 37.14,-5.68 53.19,-17.46 l 408.15,-299.65 -88.66,-75.44"
         id="path4441"
         inkscape:connector-curvature="0" /></clipPath><linearGradient
       x1="0"
       y1="0"
       x2="1"
       y2="0"
       gradientUnits="userSpaceOnUse"
       gradientTransform="matrix(1e-7,-1340.6,-1340.6,-1e-7,7173.74,7090)"
       spreadMethod="pad"
       id="linearGradient4443"><stop
         style="stop-opacity:1;stop-color:#231f20"
         offset="0"
         id="stop4445" /><stop
         style="stop-opacity:1;stop-color:#d6d5d5"
         offset="1"
         id="stop4447" /></linearGradient><clipPath
       clipPathUnits="userSpaceOnUse"
       id="clipPath4455"><path
         d="m 6728.2,475.949 c -17.09,0 -34.35,4.86 -49.61,14.981 -0.47,0.312 -0.94,0.633 -1.41,0.949 L 3071.95,2979.2 c -40.91,28.23 -51.2,84.28 -22.97,125.19 l 1468.51,2128.52 235.13,340.81 c 17.47,25.31 45.58,38.9 74.16,38.9 17.63,0 35.43,-5.16 51.03,-15.93 l 1.89,-1.3 468.98,-323.55 L 4003.1,4126.85 c -37.85,-32.21 -42.43,-89.01 -10.21,-126.87 L 6831.38,664.219 c 0.38,-0.449 0.76,-0.899 1.15,-1.328 13.4,-16.371 31.39,-26.801 50.63,-30.93 l -80.79,-117.109 c -17.47,-25.301 -45.58,-38.903 -74.17,-38.903"
         id="path4457"
         inkscape:connector-curvature="0" /></clipPath><radialGradient
       fx="0"
       fy="0"
       cx="0"
       cy="0"
       r="1"
       gradientUnits="userSpaceOnUse"
       gradientTransform="matrix(1424.59,2064.86,2368.47,-1634.05,5777.5,3044.29)"
       spreadMethod="pad"
       id="radialGradient4459"><stop
         style="stop-opacity:1;stop-color:#ffffff"
         offset="0"
         id="stop4461" /><stop
         style="stop-opacity:1;stop-color:#ffffff"
         offset="0.69846304"
         id="stop4463" /><stop
         style="stop-opacity:1;stop-color:#e8e7e7"
         offset="0.994624"
         id="stop4465" /><stop
         style="stop-opacity:1;stop-color:#e8e7e7"
         offset="1"
         id="stop4467" /></radialGradient><clipPath
       clipPathUnits="userSpaceOnUse"
       id="clipPath4497"><path
         d="m 6883.16,631.961 c -19.24,4.129 -37.23,14.559 -50.63,30.93 14.04,-15.879 32.5,-25.641 51.95,-29.02 l -1.32,-1.91"
         id="path4499"
         inkscape:connector-curvature="0" /></clipPath><radialGradient
       fx="0"
       fy="0"
       cx="0"
       cy="0"
       r="1"
       gradientUnits="userSpaceOnUse"
       gradientTransform="matrix(1424.59,2064.86,2368.47,-1634.05,5777.5,3044.29)"
       spreadMethod="pad"
       id="radialGradient4501"><stop
         style="stop-opacity:1;stop-color:#e9e8e8"
         offset="0"
         id="stop4503" /><stop
         style="stop-opacity:1;stop-color:#d4d3d3"
         offset="0.994624"
         id="stop4505" /><stop
         style="stop-opacity:1;stop-color:#d4d3d3"
         offset="1"
         id="stop4507" /></radialGradient><clipPath
       clipPathUnits="userSpaceOnUse"
       id="clipPath4515"><path
         d="m 6899.87,632.539 c -2.21,0 -4.42,0.082 -6.63,0.25 -2.94,0.223 -5.86,0.582 -8.76,1.082 -19.45,3.379 -37.91,13.141 -51.95,29.02 -0.39,0.429 -0.77,0.879 -1.15,1.328 L 3992.89,3999.98 c -32.22,37.86 -27.64,94.66 10.21,126.87 l 1345.58,1144.99 88.66,75.44 755.13,642.56 95.41,81.19 c 16.93,14.41 37.66,21.46 58.28,21.46 25.47,0 50.78,-10.76 68.59,-31.68 l 1.48,-1.75 397.49,-467.13 -1692.06,-768.42 c -45.26,-20.55 -65.29,-73.9 -44.73,-119.16 L 6848.12,804.172 6843.56,721 c -2.16,-39.531 21.51,-74.488 56.31,-88.461"
         id="path4517"
         inkscape:connector-curvature="0" /></clipPath><radialGradient
       fx="0"
       fy="0"
       cx="0"
       cy="0"
       r="1"
       gradientUnits="userSpaceOnUse"
       gradientTransform="matrix(1910.53,1625.72,1864.76,-2191.45,6623.06,3362.51)"
       spreadMethod="pad"
       id="radialGradient4519"><stop
         style="stop-opacity:1;stop-color:#ffffff"
         offset="0"
         id="stop4521" /><stop
         style="stop-opacity:1;stop-color:#ffffff"
         offset="0.69846304"
         id="stop4523" /><stop
         style="stop-opacity:1;stop-color:#e8e7e7"
         offset="0.994624"
         id="stop4525" /><stop
         style="stop-opacity:1;stop-color:#e8e7e7"
         offset="1"
         id="stop4527" /></radialGradient><clipPath
       clipPathUnits="userSpaceOnUse"
       id="clipPath4555"><path
         d="m 8495.68,5107.19 -111.93,6.13 -278.45,613.16 c 27.27,36.31 55.24,74.46 83.22,113.53 l 307.16,-732.82"
         id="path4557"
         inkscape:connector-curvature="0" /></clipPath><linearGradient
       x1="0"
       y1="0"
       x2="1"
       y2="0"
       gradientUnits="userSpaceOnUse"
       gradientTransform="matrix(1e-7,-1340.6,-1340.6,-1e-7,7173.74,7090)"
       spreadMethod="pad"
       id="linearGradient4559"><stop
         style="stop-opacity:1;stop-color:#db3727"
         offset="0"
         id="stop4561" /><stop
         style="stop-opacity:1;stop-color:#d6d5d5"
         offset="1"
         id="stop4563" /></linearGradient><clipPath
       clipPathUnits="userSpaceOnUse"
       id="clipPath4571"><path
         d="M 6848.12,804.172 5076.93,4704.35 c -20.56,45.26 -0.53,98.61 44.73,119.16 l 1692.06,768.42 105.24,47.79 934.22,424.27 c 12.07,5.48 24.72,8.07 37.16,8.07 34.22,0 66.93,-19.62 82,-52.81 l 0.95,-2.08 132.01,-290.69 278.45,-613.16 -1205.8,66.06 c -1.68,0.09 -3.34,0.14 -5,0.14 -47.45,0 -87.16,-37.12 -89.79,-85.08 l -79.09,-1443.71 c -90.74,-77.1 -101.17,-207.36 -16.6,-302.86 L 6848.12,804.172"
         id="path4573"
         inkscape:connector-curvature="0" /></clipPath><radialGradient
       fx="0"
       fy="0"
       cx="0"
       cy="0"
       r="1"
       gradientUnits="userSpaceOnUse"
       gradientTransform="matrix(2284.11,1037.29,1189.8,-2619.95,7430.18,3367.79)"
       spreadMethod="pad"
       id="radialGradient4575"><stop
         style="stop-opacity:1;stop-color:#ffffff"
         offset="0"
         id="stop4577" /><stop
         style="stop-opacity:1;stop-color:#ffffff"
         offset="0.69846304"
         id="stop4579" /><stop
         style="stop-opacity:1;stop-color:#e8e7e7"
         offset="0.994624"
         id="stop4581" /><stop
         style="stop-opacity:1;stop-color:#e8e7e7"
         offset="1"
         id="stop4583" /></radialGradient><clipPath
       clipPathUnits="userSpaceOnUse"
       id="clipPath4611"><path
         d="m 9061.16,4154.5 c -3.53,0 -7.05,0.02 -10.61,0.08 -64.29,0.99 -120.47,13.29 -169.56,33.36 l -385.31,919.25 1009.07,-55.28 c 23.28,-48.72 46.23,-103.3 69.17,-165.88 137.52,-375.06 -109.17,-731.53 -512.76,-731.53"
         id="path4613"
         inkscape:connector-curvature="0" /></clipPath><linearGradient
       x1="0"
       y1="0"
       x2="1"
       y2="0"
       gradientUnits="userSpaceOnUse"
       gradientTransform="matrix(1e-7,-1340.6,-1340.6,-1e-7,7173.74,7090)"
       spreadMethod="pad"
       id="linearGradient4615"><stop
         style="stop-opacity:1;stop-color:#db3727"
         offset="0"
         id="stop4617" /><stop
         style="stop-opacity:1;stop-color:#d6d5d5"
         offset="1"
         id="stop4619" /></linearGradient><clipPath
       clipPathUnits="userSpaceOnUse"
       id="clipPath4629"><path
         d="m 6899.97,632.539 c -0.03,0 -0.07,0 -0.1,0 -34.8,13.973 -58.47,48.93 -56.31,88.461 l 4.56,83.172 39.89,-87.852 c 0.25,-0.531 0.49,-1.058 0.74,-1.578 13.89,-32.172 44.38,-52.172 77.22,-54.172 l -7.72,-6.57 c -16.94,-14.41 -37.66,-21.461 -58.28,-21.461"
         id="path4631"
         inkscape:connector-curvature="0" /></clipPath><radialGradient
       fx="0"
       fy="0"
       cx="0"
       cy="0"
       r="1"
       gradientUnits="userSpaceOnUse"
       gradientTransform="matrix(1910.53,1625.72,1864.76,-2191.45,6623.06,3362.51)"
       spreadMethod="pad"
       id="radialGradient4633"><stop
         style="stop-opacity:1;stop-color:#e9e8e8"
         offset="0"
         id="stop4635" /><stop
         style="stop-opacity:1;stop-color:#d4d3d3"
         offset="0.994624"
         id="stop4637" /><stop
         style="stop-opacity:1;stop-color:#d4d3d3"
         offset="1"
         id="stop4639" /></radialGradient><clipPath
       clipPathUnits="userSpaceOnUse"
       id="clipPath4649"><path
         d="m 8880.99,4187.94 c -39.36,16.09 -74.19,37.19 -104.87,61.4 l -392.37,863.98 111.93,-6.13 385.31,-919.25"
         id="path4651"
         inkscape:connector-curvature="0" /></clipPath><linearGradient
       x1="0"
       y1="0"
       x2="1"
       y2="0"
       gradientUnits="userSpaceOnUse"
       gradientTransform="matrix(1e-7,-1340.6,-1340.6,-1e-7,7173.74,7090)"
       spreadMethod="pad"
       id="linearGradient4653"><stop
         style="stop-opacity:1;stop-color:#c9402c"
         offset="0"
         id="stop4655" /><stop
         style="stop-opacity:1;stop-color:#c3c2c3"
         offset="1"
         id="stop4657" /></linearGradient><clipPath
       clipPathUnits="userSpaceOnUse"
       id="clipPath4667"><path
         d="m 6965.97,660.57 c -32.84,2 -63.33,22 -77.22,54.172 15.3,-32.051 47.22,-51.012 80.69,-51.222 l -3.47,-2.95"
         id="path4669"
         inkscape:connector-curvature="0" /></clipPath><radialGradient
       fx="0"
       fy="0"
       cx="0"
       cy="0"
       r="1"
       gradientUnits="userSpaceOnUse"
       gradientTransform="matrix(1910.53,1625.72,1864.76,-2191.45,6623.06,3362.51)"
       spreadMethod="pad"
       id="radialGradient4671"><stop
         style="stop-opacity:1;stop-color:#d5d4d4"
         offset="0"
         id="stop4673" /><stop
         style="stop-opacity:1;stop-color:#c2c1c1"
         offset="0.994624"
         id="stop4675" /><stop
         style="stop-opacity:1;stop-color:#c2c1c1"
         offset="1"
         id="stop4677" /></radialGradient><clipPath
       clipPathUnits="userSpaceOnUse"
       id="clipPath4685"><path
         d="m 6970.02,663.52 c -0.2,0 -0.39,0 -0.58,0 -33.47,0.21 -65.39,19.171 -80.69,51.222 -0.25,0.52 -0.49,1.047 -0.74,1.578 l -39.89,87.852 139.35,2543.698 c 3.06,-3.45 6.24,-6.85 9.55,-10.21 112.64,-114.39 176.8,-122.5 300.98,-186.11 123.56,-63.3 315.34,-182.33 334.87,-223.78 0.1,-0.21 0.19,-0.42 0.29,-0.62 l 0,0 0,0 c -0.09,0.2 -0.19,0.41 -0.29,0.62 -18.4,41.96 13.46,262.55 47.11,397.24 33.82,135.38 69.93,189.03 57.93,349.11 -9.18,122.42 -99.47,203.18 -207.47,203.18 -33.23,0 -68.13,-7.64 -102.86,-24.07 -147.64,-69.8 -100.33,-252.48 -100.33,-252.48 0,0 -75.66,104.58 -186.18,104.58 -23.47,0 -48.49,-4.71 -74.7,-16.13 -23.76,-10.36 -44.57,-23.4 -62.3,-38.47 l 79.09,1443.71 c 2.63,47.96 42.34,85.08 89.79,85.08 1.66,0 3.32,-0.05 5,-0.14 l 1205.8,-66.06 392.37,-863.98 1007.31,-2218.11 c 20.55,-45.26 0.53,-98.61 -44.73,-119.17 L 7007.18,671.59 c -10.18,-4.617 -20.76,-7.188 -31.29,-7.879 -1.96,-0.129 -3.92,-0.191 -5.87,-0.191 m 2478.9,1785.77 -249.46,-113.28 161.2,-354.98 249.46,113.29 -161.2,354.97 m -271.33,232.8 c 5.69,-12.94 -4.15,-81.09 -14.54,-122.7 -10.45,-41.81 -21.6,-58.38 -17.9,-107.82 2.84,-37.81 30.72,-62.75 64.08,-62.75 10.26,0 21.04,2.36 31.77,7.43 45.6,21.56 30.98,77.98 30.98,77.98 0,0 23.37,-32.3 57.51,-32.3 7.24,0 14.97,1.46 23.07,4.98 46.24,20.15 56.21,73.25 21.42,108.58 -34.79,35.33 -54.61,37.83 -92.96,57.48 -38.17,19.55 -97.42,56.33 -103.43,69.12 -0.03,0.06 -0.06,0.12 -0.08,0.18 0.02,-0.06 0.05,-0.12 0.08,-0.18"
         id="path4687"
         inkscape:connector-curvature="0" /></clipPath><radialGradient
       fx="0"
       fy="0"
       cx="0"
       cy="0"
       r="1"
       gradientUnits="userSpaceOnUse"
       gradientTransform="matrix(2284.11,1037.29,1189.8,-2619.95,7430.18,3367.79)"
       spreadMethod="pad"
       id="radialGradient4689"><stop
         style="stop-opacity:1;stop-color:#e9e8e8"
         offset="0"
         id="stop4691" /><stop
         style="stop-opacity:1;stop-color:#d4d3d3"
         offset="0.994624"
         id="stop4693" /><stop
         style="stop-opacity:1;stop-color:#d4d3d3"
         offset="1"
         id="stop4695" /></radialGradient><clipPath
       clipPathUnits="userSpaceOnUse"
       id="clipPath4707"><path
         d="m 9360.66,1981.03 -161.2,354.98 249.46,113.28 161.2,-354.97 -249.46,-113.29"
         id="path4709"
         inkscape:connector-curvature="0" /></clipPath><clipPath
       clipPathUnits="userSpaceOnUse"
       id="clipPath4713"><path
         d="m 9199.46,1981.03 410.66,0 0,468.258 -410.66,0 0,-468.258 z"
         id="path4715"
         inkscape:connector-curvature="0" /></clipPath><radialGradient
       fx="0"
       fy="0"
       cx="0"
       cy="0"
       r="1"
       gradientUnits="userSpaceOnUse"
       gradientTransform="matrix(2284.11,1037.29,1189.8,-2619.95,7430.18,3367.79)"
       spreadMethod="pad"
       id="radialGradient4717"><stop
         style="stop-opacity:1;stop-color:#e9e8e8"
         offset="0"
         id="stop4719" /><stop
         style="stop-opacity:1;stop-color:#d4d3d3"
         offset="0.994624"
         id="stop4721" /><stop
         style="stop-opacity:1;stop-color:#d4d3d3"
         offset="1"
         id="stop4723" /></radialGradient><clipPath
       clipPathUnits="userSpaceOnUse"
       id="clipPath4731"><path
         d="m 9360.66,1981.03 -161.2,354.98 249.46,113.28 161.2,-354.97 -249.46,-113.29"
         id="path4733"
         inkscape:connector-curvature="0" /></clipPath><clipPath
       clipPathUnits="userSpaceOnUse"
       id="clipPath4737"><path
         d="m 9298.09,2118.89 c 42.56,-93.73 110.43,-116.15 187.32,-81.23 76.9,34.93 104.68,100.77 62.11,194.5 -38.3,84.36 -97.27,109.4 -165.18,87.51 -19.46,39.68 -73.85,57.84 -130.26,40.24 l 4.09,-51.37 c 42.56,8.96 66.04,5.96 79.9,-10.83 -57.46,-36.46 -75.23,-96.81 -37.98,-178.82 z m 196.44,89.21 c 31.75,-69.91 12.64,-108.27 -28.81,-127.09 -41.43,-18.82 -82.89,-7.96 -114.64,61.94 -31.92,70.3 -11.74,106.31 29.69,125.13 41.45,18.82 81.84,10.31 113.76,-59.98 z"
         id="path4739"
         inkscape:connector-curvature="0" /></clipPath><radialGradient
       fx="0"
       fy="0"
       cx="0"
       cy="0"
       r="1"
       gradientUnits="userSpaceOnUse"
       gradientTransform="matrix(2284.11,1037.29,1189.8,-2619.95,7430.18,3367.79)"
       spreadMethod="pad"
       id="radialGradient4741"><stop
         style="stop-opacity:1;stop-color:#db3727"
         offset="0"
         id="stop4743" /><stop
         style="stop-opacity:1;stop-color:#db3727"
         offset="0.994624"
         id="stop4745" /><stop
         style="stop-opacity:1;stop-color:#db3727"
         offset="1"
         id="stop4747" /></radialGradient><clipPath
       clipPathUnits="userSpaceOnUse"
       id="clipPath4755"><path
         d="m 9965.03,642.621 c -1.26,-49.691 -42.57,-88.949 -92.26,-87.691 l -2999.03,76.05 c -49.69,1.262 -88.95,42.559 -87.69,92.25 l 111.03,4378.6 c 1.26,49.69 42.57,88.95 92.26,87.69 l 2999.03,-76.06 c 49.73,-1.26 88.93,-42.56 87.73,-92.25 L 9965.03,642.621 Z"
         id="path4757"
         inkscape:connector-curvature="0" /></clipPath><radialGradient
       fx="0"
       fy="0"
       cx="0"
       cy="0"
       r="1"
       gradientUnits="userSpaceOnUse"
       gradientTransform="matrix(2507.8,-63.595,-72.9457,-2876.53,8431.06,2872.22)"
       spreadMethod="pad"
       id="radialGradient4759"><stop
         style="stop-opacity:1;stop-color:#ffffff"
         offset="0"
         id="stop4761" /><stop
         style="stop-opacity:1;stop-color:#ffffff"
         offset="0.69846304"
         id="stop4763" /><stop
         style="stop-opacity:1;stop-color:#e8e7e7"
         offset="0.994624"
         id="stop4765" /><stop
         style="stop-opacity:1;stop-color:#e8e7e7"
         offset="1"
         id="stop4767" /></radialGradient></defs><sodipodi:namedview
     pagecolor="#ffffff"
     bordercolor="#666666"
     borderopacity="1"
     objecttolerance="10"
     gridtolerance="10"
     guidetolerance="10"
     inkscape:pageopacity="0"
     inkscape:pageshadow="2"
     inkscape:window-width="1280"
     inkscape:window-height="700"
     id="namedview4287"
     showgrid="false"
     inkscape:zoom="0.19265306"
     inkscape:cx="1134.5339"
     inkscape:cy="612.5"
     inkscape:window-x="0"
     inkscape:window-y="1"
     inkscape:window-maximized="1"
     inkscape:current-layer="layer1" /><g
     inkscape:groupmode="layer"
     id="layer4"
     inkscape:label="Club"
     style="display:inline"><path
       inkscape:connector-curvature="0"
       id="path4305"
       style="fill:#231f20;fill-opacity:1;fill-rule:nonzero;stroke:none"
       d="m 575.06056,345.70946 c 0,-20.30179 -16.45745,-36.75995 -36.75995,-36.75995 -5.00269,0 -9.76988,1.00324 -14.11726,2.81335 4.08199,-5.92198 6.47767,-13.09624 6.47767,-20.8333 0,-20.30179 -16.45887,-36.75995 -36.76066,-36.75995 -20.30179,0 -36.75995,16.45816 -36.75995,36.75995 0,7.36636 2.17512,14.22043 5.90561,19.97165 -3.70915,-1.25868 -7.68085,-1.9517 -11.81549,-1.9517 -20.3025,0 -36.75995,16.45816 -36.75995,36.75995 0,20.30179 16.45745,36.75995 36.75995,36.75995 4.58503,0 8.97084,-0.84671 13.01867,-2.38075 l -7.1e-4,0.009 c 0,0 17.10849,-4.6199 28.35477,-25.0896 l 0,12.32494 c 0,0 -5.76615,38.85039 -46.41812,43.10315 l -6.48763,0 0,6.05432 110.71245,0 0,-6.05432 -6.48692,0 c -40.65196,-4.25276 -46.41883,-43.10315 -46.41883,-43.10315 l 0,-11.49531 c 2.09471,4.61278 13.67612,27.16653 39.70422,26.60656 l -7.1e-4,0 c 0.36429,0.0107 0.72646,0.0278 1.09289,0.0278 20.3025,0 36.75995,-16.45816 36.75995,-36.75995" /></g><g
     inkscape:groupmode="layer"
     id="layer3"
     inkscape:label="Diamond"
     style="display:inline"><path
       inkscape:connector-curvature="0"
       id="path4299"
       style="fill:#ee2a22;fill-opacity:1;fill-rule:nonzero;stroke:none"
       d="m 279.77635,203.87065 -60.87193,78.98437 60.87193,78.98509 60.87193,-78.98509 -60.87193,-78.98437" /></g><g
     inkscape:groupmode="layer"
     id="layer2"
     inkscape:label="Heart"
     style="display:inline"><path
       inkscape:connector-curvature="0"
       id="path4301"
       style="fill:#ee2a22;fill-opacity:1;fill-rule:nonzero;stroke:none"
       d="m 755.99268,248.26677 c -29.16234,0.44826 -34.9598,33.64919 -34.9598,33.64919 0,0 -6.72956,-33.20093 -35.8919,-33.64919 -29.16305,-0.44897 -47.10971,25.12447 -37.2388,52.04411 9.8702,26.91892 19.70482,32.97608 35.20172,52.49236 15.49619,19.51698 38.0414,53.27859 37.92898,61.24192 -0.11171,-7.96333 21.49999,-41.72494 36.99688,-61.24192 15.4969,-19.51628 25.33153,-25.57344 35.20173,-52.49236 9.8702,-26.91964 -8.07575,-52.49308 -37.23881,-52.04411" /></g><g
     inkscape:groupmode="layer"
     id="layer1"
     inkscape:label="Spade"
     style="display:inline"><path
       inkscape:connector-curvature="0"
       id="path4303"
       style="fill:#231f20;fill-opacity:1;fill-rule:nonzero;stroke:none"
       d="m 972.60776,375.12041 c 27.27255,0.3892 44.05014,-21.79812 34.82174,-45.15233 -9.22838,-23.35492 -18.42833,-28.60949 -32.91487,-45.54152 -14.49365,-16.93204 -35.56887,-46.22245 -35.46925,-53.13131 0.10672,6.90886 -20.10043,36.19927 -34.59409,53.13131 -14.48654,16.93203 -23.67937,22.1866 -32.9149,45.54152 -9.22841,23.35421 7.55634,45.54153 34.82177,45.15233 18.72009,-0.26754 27.14448,-13.92302 30.58112,-22.46054 l 0,11.1737 c 0,0 -5.97677,40.30474 -48.15565,44.71688 l -6.72386,0 0,6.28058 114.8535,0 0,-6.28058 -6.73098,0 c -42.17177,-4.41214 -48.15565,-44.71688 -48.15565,-44.71688 l 0,-9.70655 c 4.04855,8.54677 12.89986,20.7408 30.58112,20.99339" /></g></svg>