<?xml version="1.0" encoding="UTF-8" standalone="no"?>
<!-- Created with Inkscape (http://www.inkscape.org/) -->

<svg
   xmlns:dc="http://purl.org/dc/elements/1.1/"
   xmlns:cc="http://creativecommons.org/ns#"
   xmlns:rdf="http://www.w3.org/1999/02/22-rdf-syntax-ns#"
   xmlns:svg="http://www.w3.org/2000/svg"
   xmlns="http://www.w3.org/2000/svg"
   xmlns:sodipodi="http://sodipodi.sourceforge.net/DTD/sodipodi-0.dtd"
   xmlns:inkscape="http://www.inkscape.org/namespaces/inkscape"
   id="svg4177"
   version="1.1"
   inkscape:version="0.91 r13725"
   xml:space="preserve"
   width="1750"
   height="1225"
   viewBox="0 0 1750 1225"
   sodipodi:docname="Skeleton key.svg"><metadata
     id="metadata4183"><rdf:RDF><cc:Work
         rdf:about=""><dc:format>image/svg+xml</dc:format><dc:type
           rdf:resource="http://purl.org/dc/dcmitype/StillImage" /><dc:title></dc:title></cc:Work></rdf:RDF></metadata><defs
     id="defs4181" /><sodipodi:namedview
     pagecolor="#ffffff"
     bordercolor="#666666"
     borderopacity="1"
     objecttolerance="10"
     gridtolerance="10"
     guidetolerance="10"
     inkscape:pageopacity="0"
     inkscape:pageshadow="2"
     inkscape:window-width="1280"
     inkscape:window-height="700"
     id="namedview4179"
     showgrid="false"
     inkscape:zoom="0.65144117"
     inkscape:cx="783.2197"
     inkscape:cy="619.87298"
     inkscape:window-x="0"
     inkscape:window-y="1"
     inkscape:window-maximized="1"
     inkscape:current-layer="g4185" /><g
     id="g4185"
     inkscape:groupmode="layer"
     inkscape:label="ink_ext_XXXXXX"
     transform="matrix(1.25,0,0,-1.25,0,1225)"><path
       inkscape:connector-curvature="0"
       id="path4201"
       style="fill:#2f302e;fill-opacity:1;fill-rule:nonzero;stroke:none"
       d="m 692.9523,638.77114 c 5.38979,4.3829 9.34632,10.45921 11.0566,17.41114 1.30439,0.30352 2.65696,0.48057 4.05289,0.48057 9.86543,0 17.8917,-8.02628 17.8917,-17.89171 0,-9.86543 -8.02627,-17.8917 -17.8917,-17.8917 -1.39593,0 -2.7485,0.17705 -4.05289,0.48056 -1.71028,6.95193 -5.66681,13.02825 -11.0566,17.41114 z m -16.36089,7.74083 c -1.30439,-0.30472 -2.65695,-0.48056 -4.05288,-0.48056 -1.39593,0 -2.74849,0.17584 -4.05288,0.48056 -7.91668,1.84277 -13.83883,8.94043 -13.83883,17.41114 0,0.66003 0.0422,1.30921 0.11202,1.95117 0.97678,8.95007 8.57428,15.93933 17.77969,15.93933 9.20541,0 16.80291,-6.98926 17.7797,-15.93933 0.0698,-0.64196 0.1108,-1.29114 0.1108,-1.95117 0,-8.47071 -5.92094,-15.56837 -13.83762,-17.41114 z m 13.72682,-34.84396 c -0.97679,-8.95007 -8.57429,-15.93934 -17.7797,-15.93934 -9.20541,0 -16.80291,6.98927 -17.77969,15.93934 -0.0699,0.64075 -0.11202,1.29114 -0.11202,1.95116 0,8.46951 5.92215,15.56717 13.83883,17.41114 1.30439,0.30352 2.65695,0.48057 4.05288,0.48057 1.39593,0 2.74849,-0.17705 4.05288,-0.48057 7.91668,-1.84397 13.83762,-8.94163 13.83762,-17.41114 0,-0.66002 -0.041,-1.31041 -0.1108,-1.95116 z M 641.06816,621.36 c -1.30439,-0.30351 -2.65696,-0.48056 -4.05289,-0.48056 -9.86543,0 -17.8917,8.02627 -17.8917,17.8917 0,9.86543 8.02627,17.89171 17.8917,17.89171 1.39593,0 2.7485,-0.17705 4.05289,-0.48057 1.71028,-6.95193 5.66681,-13.02824 11.0566,-17.41114 -5.38979,-4.38289 -9.34632,-10.45921 -11.0566,-17.41114 z m 63.10695,-14.76021 c 1.27549,-0.15296 2.57024,-0.24088 3.88668,-0.24088 17.87123,0 32.41223,14.5398 32.41223,32.41223 0,17.87123 -14.541,32.41223 -32.41223,32.41223 -1.31644,0 -2.61119,-0.0879 -3.88668,-0.24088 -3.21581,14.50728 -16.1754,25.39165 -31.63658,25.39165 -15.46118,0 -28.42077,-10.88437 -31.63658,-25.39165 -1.27549,0.15296 -2.57024,0.24088 -3.88668,0.24088 -17.87123,0 -32.41223,-14.541 -32.41223,-32.41223 0,-17.87243 14.541,-32.41223 32.41223,-32.41223 1.31644,0 2.61119,0.0879 3.88668,0.24088 1.75845,-7.93353 6.43643,-14.77947 12.83915,-19.35869 -1.22008,-1.70065 -1.94635,-3.77948 -1.94635,-6.03296 0,-5.72823 4.64426,-10.37128 10.37249,-10.37128 l 0,-16.06942 c -5.72823,0 -10.37249,-4.64305 -10.37249,-10.37129 0,-5.72823 4.64426,-10.37128 10.37249,-10.37128 l 0,-87.47365 c -5.72823,0 -10.37249,-4.64425 -10.37249,-10.37129 0,-5.72823 4.64426,-10.37249 10.37249,-10.37249 l 0,-134.6568 20.74258,0 0,5.18516 10.37249,0 0,5.18601 10.37129,0 0,-5.18601 20.74378,0 0,20.74354 -10.37249,0 0,7.79262 -5.18504,0 0,10.37249 5.18504,0 0,7.79262 10.37249,0 0,20.74258 -20.74378,0 0,5.18624 -10.37129,0 0,-5.18624 -10.37249,0 0,62.02779 c 5.72824,0 10.37249,4.64426 10.37249,10.37249 0,5.72704 -4.64425,10.37129 -10.37249,10.37129 l 0,87.47365 c 5.72824,0 10.37249,4.64305 10.37249,10.37128 0,5.72824 -4.64425,10.37129 -10.37249,10.37129 l 0,16.06942 c 5.72824,0 10.37249,4.64305 10.37249,10.37128 0,2.25348 -0.72627,4.33231 -1.94635,6.03296 6.40272,4.57922 11.0807,11.42516 12.83915,19.35869" /></g></svg>